M48
; DRILL file {KiCad (6.0.2-0)} date Sunday, March 13, 2022 at 05:04:06 PM
; FORMAT={-:-/ absolute / inch / decimal}
; #@! TF.CreationDate,2022-03-13T17:04:06-04:00
; #@! TF.GenerationSoftware,Kicad,Pcbnew,(6.0.2-0)
; #@! TF.FileFunction,Plated,1,2,PTH
FMAT,2
INCH
; #@! TA.AperFunction,Plated,PTH,ViaDrill
T1C0.0150
; #@! TA.AperFunction,Plated,PTH,ComponentDrill
T2C0.0217
; #@! TA.AperFunction,Plated,PTH,ComponentDrill
T3C0.0300
; #@! TA.AperFunction,Plated,PTH,ComponentDrill
T4C0.0315
; #@! TA.AperFunction,Plated,PTH,ComponentDrill
T5C0.0354
; #@! TA.AperFunction,Plated,PTH,ComponentDrill
T6C0.0461
; #@! TA.AperFunction,Plated,PTH,ComponentDrill
T7C0.0591
%
G90
G05
T1
X6.5Y-4.4
T2
X6.5648Y-4.5
X6.5648Y-4.55
X6.5648Y-4.6
T3
X6.05Y-4.6
X6.05Y-4.9
X6.15Y-4.6
X6.15Y-4.9
X6.25Y-4.6
X6.25Y-4.9
X6.35Y-4.6
X6.35Y-4.9
T4
X6.275Y-4.05
X6.275Y-4.35
X6.425Y-4.05
X6.425Y-4.35
X6.575Y-4.05
X6.575Y-4.35
X6.6Y-4.7839
X6.6Y-4.8626
X6.725Y-4.05
X6.725Y-4.35
X6.75Y-4.525
X6.875Y-4.05
X6.875Y-4.35
X6.8784Y-4.775
X6.9769Y-4.775
X7.025Y-4.05
X7.025Y-4.35
X7.05Y-4.525
T5
X5.7Y-2.475
X5.8Y-2.475
X6.1Y-4.0871
X6.1Y-4.1856
X6.1Y-4.284
X6.3248Y-2.475
X6.4248Y-2.475
T6
X5.5Y-4.8
T7
X5.5Y-4.0126
T0
M30
