%TF.GenerationSoftware,KiCad,Pcbnew,(6.0.2-0)*%
%TF.CreationDate,2022-03-13T17:03:43-04:00*%
%TF.ProjectId,555_Badge,3535355f-4261-4646-9765-2e6b69636164,V01*%
%TF.SameCoordinates,Original*%
%TF.FileFunction,Copper,L2,Bot*%
%TF.FilePolarity,Positive*%
%FSLAX46Y46*%
G04 Gerber Fmt 4.6, Leading zero omitted, Abs format (unit mm)*
G04 Created by KiCad (PCBNEW (6.0.2-0)) date 2022-03-13 17:03:43*
%MOMM*%
%LPD*%
G01*
G04 APERTURE LIST*
%ADD10C,0.150000*%
%TA.AperFunction,NonConductor*%
%ADD11C,0.150000*%
%TD*%
%TA.AperFunction,ComponentPad*%
%ADD12C,2.500000*%
%TD*%
%TA.AperFunction,ComponentPad*%
%ADD13R,2.170000X2.170000*%
%TD*%
%TA.AperFunction,ComponentPad*%
%ADD14C,1.524000*%
%TD*%
%TA.AperFunction,ComponentPad*%
%ADD15C,1.900000*%
%TD*%
%TA.AperFunction,ComponentPad*%
%ADD16R,1.900000X1.900000*%
%TD*%
%TA.AperFunction,ComponentPad*%
%ADD17C,1.600000*%
%TD*%
%TA.AperFunction,ComponentPad*%
%ADD18O,1.600000X1.600000*%
%TD*%
%TA.AperFunction,ComponentPad*%
%ADD19R,1.500000X1.000000*%
%TD*%
%TA.AperFunction,ComponentPad*%
%ADD20O,1.500000X1.000000*%
%TD*%
%TA.AperFunction,ComponentPad*%
%ADD21R,1.800000X1.800000*%
%TD*%
%TA.AperFunction,ComponentPad*%
%ADD22C,1.800000*%
%TD*%
%TA.AperFunction,ComponentPad*%
%ADD23R,1.600000X1.600000*%
%TD*%
%TA.AperFunction,ViaPad*%
%ADD24C,0.762000*%
%TD*%
%TA.AperFunction,Conductor*%
%ADD25C,0.254000*%
%TD*%
G04 APERTURE END LIST*
D10*
D11*
X180006476Y-125261714D02*
X179768380Y-125928380D01*
X179530285Y-125261714D01*
X178958857Y-124928380D02*
X178863619Y-124928380D01*
X178768380Y-124976000D01*
X178720761Y-125023619D01*
X178673142Y-125118857D01*
X178625523Y-125309333D01*
X178625523Y-125547428D01*
X178673142Y-125737904D01*
X178720761Y-125833142D01*
X178768380Y-125880761D01*
X178863619Y-125928380D01*
X178958857Y-125928380D01*
X179054095Y-125880761D01*
X179101714Y-125833142D01*
X179149333Y-125737904D01*
X179196952Y-125547428D01*
X179196952Y-125309333D01*
X179149333Y-125118857D01*
X179101714Y-125023619D01*
X179054095Y-124976000D01*
X178958857Y-124928380D01*
X177673142Y-125928380D02*
X178244571Y-125928380D01*
X177958857Y-125928380D02*
X177958857Y-124928380D01*
X178054095Y-125071238D01*
X178149333Y-125166476D01*
X178244571Y-125214095D01*
D12*
%TO.P,BAT1,Pos*%
%TO.N,Net-(BAT1-PadPos)*%
X139700000Y-101920000D03*
D13*
%TO.P,BAT1,Neg*%
%TO.N,GND*%
X139700000Y-121920000D03*
%TD*%
D14*
%TO.P,U1,1,GND*%
%TO.N,GND*%
X153670000Y-124460000D03*
%TO.P,U1,2,~{TRIG}*%
%TO.N,Net-(C1-Pad1)*%
X156210000Y-124460000D03*
%TO.P,U1,3,OUT*%
%TO.N,Net-(R3-Pad1)*%
X158750000Y-124460000D03*
%TO.P,U1,4,~{RST}*%
%TO.N,VCC*%
X161290000Y-124460000D03*
%TO.P,U1,5,CV*%
%TO.N,unconnected-(U1-Pad5)*%
X161290000Y-116840000D03*
%TO.P,U1,6,THRESH*%
%TO.N,Net-(C1-Pad1)*%
X158750000Y-116840000D03*
%TO.P,U1,7,DIS*%
%TO.N,Net-(R1-Pad2)*%
X156210000Y-116840000D03*
%TO.P,U1,8,VDD*%
%TO.N,VCC*%
X153670000Y-116840000D03*
%TD*%
D15*
%TO.P,S1,3*%
%TO.N,Net-(BAT1-PadPos)*%
X154940000Y-103813600D03*
%TO.P,S1,2*%
%TO.N,VCC*%
X154940000Y-106313600D03*
D16*
%TO.P,S1,1*%
%TO.N,unconnected-(S1-Pad1)*%
X154940000Y-108813600D03*
%TD*%
D17*
%TO.P,R7,1*%
%TO.N,VCC*%
X170815000Y-110490000D03*
D18*
%TO.P,R7,2*%
%TO.N,Net-(D2-Pad2)*%
X170815000Y-102870000D03*
%TD*%
D17*
%TO.P,R6,1*%
%TO.N,VCC*%
X167005000Y-110490000D03*
D18*
%TO.P,R6,2*%
%TO.N,Net-(D1-Pad2)*%
X167005000Y-102870000D03*
%TD*%
D17*
%TO.P,R5,1*%
%TO.N,Net-(C2-Pad1)*%
X171450000Y-114935000D03*
D18*
%TO.P,R5,2*%
%TO.N,Net-(Q1-Pad2)*%
X179070000Y-114935000D03*
%TD*%
%TO.P,R4,2*%
%TO.N,GND*%
X178435000Y-110490000D03*
D17*
%TO.P,R4,1*%
%TO.N,Net-(C2-Pad1)*%
X178435000Y-102870000D03*
%TD*%
D18*
%TO.P,R3,2*%
%TO.N,Net-(C2-Pad1)*%
X174625000Y-102870000D03*
D17*
%TO.P,R3,1*%
%TO.N,Net-(R3-Pad1)*%
X174625000Y-110490000D03*
%TD*%
D18*
%TO.P,R2,2*%
%TO.N,Net-(C1-Pad1)*%
X159385000Y-110490000D03*
D17*
%TO.P,R2,1*%
%TO.N,Net-(R1-Pad2)*%
X159385000Y-102870000D03*
%TD*%
%TO.P,R1,1*%
%TO.N,VCC*%
X163195000Y-102870000D03*
D18*
%TO.P,R1,2*%
%TO.N,Net-(R1-Pad2)*%
X163195000Y-110490000D03*
%TD*%
D19*
%TO.P,Q1,1,E*%
%TO.N,GND*%
X166745000Y-116840000D03*
D20*
%TO.P,Q1,3,C*%
%TO.N,Net-(D1-Pad1)*%
X166745000Y-114300000D03*
%TO.P,Q1,2,B*%
%TO.N,Net-(Q1-Pad2)*%
X166745000Y-115570000D03*
%TD*%
D21*
%TO.P,D2,1,K*%
%TO.N,Net-(D1-Pad1)*%
X160650000Y-62865000D03*
D22*
%TO.P,D2,2,A*%
%TO.N,Net-(D2-Pad2)*%
X163190000Y-62865000D03*
%TD*%
D21*
%TO.P,D1,1,K*%
%TO.N,Net-(D1-Pad1)*%
X144780000Y-62865000D03*
D22*
%TO.P,D1,2,A*%
%TO.N,Net-(D1-Pad2)*%
X147320000Y-62865000D03*
%TD*%
D17*
%TO.P,C2,2*%
%TO.N,GND*%
X177212621Y-121285000D03*
D23*
%TO.P,C2,1*%
%TO.N,Net-(C2-Pad1)*%
X174712621Y-121285000D03*
%TD*%
%TO.P,C1,1*%
%TO.N,Net-(C1-Pad1)*%
X167640000Y-123510113D03*
D17*
%TO.P,C1,2*%
%TO.N,GND*%
X167640000Y-121510113D03*
%TD*%
D24*
%TO.N,Net-(D1-Pad1)*%
X165100000Y-111760000D03*
%TD*%
D25*
%TO.N,Net-(D1-Pad2)*%
X146685000Y-59055000D02*
X147320000Y-59690000D01*
X142240000Y-59055000D02*
X146685000Y-59055000D01*
X143499489Y-67299489D02*
X142864489Y-67299489D01*
X140970000Y-65405000D02*
X140970000Y-60325000D01*
X142864489Y-67299489D02*
X140970000Y-65405000D01*
X143510000Y-67310000D02*
X143499489Y-67299489D01*
X140970000Y-60325000D02*
X142240000Y-59055000D01*
X147320000Y-59690000D02*
X147320000Y-62865000D01*
X161925000Y-67310000D02*
X143510000Y-67310000D01*
X167005000Y-102870000D02*
X167005000Y-72390000D01*
X167005000Y-72390000D02*
X161925000Y-67310000D01*
%TO.N,Net-(D2-Pad2)*%
X170815000Y-102870000D02*
X170815000Y-70490000D01*
X170815000Y-70490000D02*
X163190000Y-62865000D01*
%TO.N,Net-(D1-Pad1)*%
X165100000Y-111760000D02*
X165100000Y-107315000D01*
X168910000Y-103505000D02*
X168910000Y-71125000D01*
X165100000Y-107315000D02*
X168910000Y-103505000D01*
X168910000Y-71125000D02*
X160650000Y-62865000D01*
X160650000Y-62865000D02*
X159369489Y-64145511D01*
X159369489Y-64145511D02*
X146060511Y-64145511D01*
X146060511Y-64145511D02*
X144780000Y-62865000D01*
%TO.N,Net-(R3-Pad1)*%
X158750000Y-124460000D02*
X165614489Y-117595511D01*
X165614489Y-117595511D02*
X165614489Y-113935268D01*
X165614489Y-113935268D02*
X167789757Y-111760000D01*
X167789757Y-111760000D02*
X173355000Y-111760000D01*
X173355000Y-111760000D02*
X174625000Y-110490000D01*
%TO.N,Net-(R1-Pad2)*%
X163195000Y-110490000D02*
X156845000Y-116840000D01*
X156845000Y-116840000D02*
X156210000Y-116840000D01*
X163195000Y-110490000D02*
X163195000Y-106680000D01*
X163195000Y-106680000D02*
X159385000Y-102870000D01*
%TO.N,Net-(Q1-Pad2)*%
X179070000Y-114935000D02*
X177889489Y-116115511D01*
X167640000Y-115570000D02*
X166745000Y-115570000D01*
X177889489Y-116115511D02*
X168185511Y-116115511D01*
X168185511Y-116115511D02*
X167640000Y-115570000D01*
%TO.N,Net-(C1-Pad1)*%
X156210000Y-124460000D02*
X156210000Y-119380000D01*
X156210000Y-119380000D02*
X158750000Y-116840000D01*
%TD*%
%TA.AperFunction,Conductor*%
%TO.N,GND*%
G36*
X180282121Y-41930002D02*
G01*
X180328614Y-41983658D01*
X180340000Y-42036000D01*
X180340000Y-114067827D01*
X180319998Y-114135948D01*
X180266342Y-114182441D01*
X180196068Y-114192545D01*
X180131488Y-114163051D01*
X180110787Y-114140098D01*
X180079357Y-114095211D01*
X180079355Y-114095208D01*
X180076198Y-114090700D01*
X179914300Y-113928802D01*
X179909792Y-113925645D01*
X179909789Y-113925643D01*
X179808880Y-113854986D01*
X179726749Y-113797477D01*
X179721767Y-113795154D01*
X179721762Y-113795151D01*
X179524225Y-113703039D01*
X179524224Y-113703039D01*
X179519243Y-113700716D01*
X179513935Y-113699294D01*
X179513933Y-113699293D01*
X179303402Y-113642881D01*
X179303400Y-113642881D01*
X179298087Y-113641457D01*
X179070000Y-113621502D01*
X178841913Y-113641457D01*
X178836600Y-113642881D01*
X178836598Y-113642881D01*
X178626067Y-113699293D01*
X178626065Y-113699294D01*
X178620757Y-113700716D01*
X178615776Y-113703039D01*
X178615775Y-113703039D01*
X178418238Y-113795151D01*
X178418233Y-113795154D01*
X178413251Y-113797477D01*
X178331120Y-113854986D01*
X178230211Y-113925643D01*
X178230208Y-113925645D01*
X178225700Y-113928802D01*
X178063802Y-114090700D01*
X178060645Y-114095208D01*
X178060643Y-114095211D01*
X178045911Y-114116251D01*
X177932477Y-114278251D01*
X177930154Y-114283233D01*
X177930151Y-114283238D01*
X177921899Y-114300935D01*
X177835716Y-114485757D01*
X177834294Y-114491065D01*
X177834293Y-114491067D01*
X177780265Y-114692701D01*
X177776457Y-114706913D01*
X177756502Y-114935000D01*
X177776457Y-115163087D01*
X177777880Y-115168398D01*
X177777882Y-115168409D01*
X177792861Y-115224310D01*
X177791172Y-115295287D01*
X177760250Y-115346017D01*
X177663161Y-115443106D01*
X177600849Y-115477132D01*
X177574066Y-115480011D01*
X172822830Y-115480011D01*
X172754709Y-115460009D01*
X172708216Y-115406353D01*
X172698112Y-115336079D01*
X172701123Y-115321400D01*
X172742119Y-115168402D01*
X172742119Y-115168400D01*
X172743543Y-115163087D01*
X172763498Y-114935000D01*
X172743543Y-114706913D01*
X172739735Y-114692701D01*
X172685707Y-114491067D01*
X172685706Y-114491065D01*
X172684284Y-114485757D01*
X172598101Y-114300935D01*
X172589849Y-114283238D01*
X172589846Y-114283233D01*
X172587523Y-114278251D01*
X172474089Y-114116251D01*
X172459357Y-114095211D01*
X172459355Y-114095208D01*
X172456198Y-114090700D01*
X172294300Y-113928802D01*
X172289792Y-113925645D01*
X172289789Y-113925643D01*
X172188880Y-113854986D01*
X172106749Y-113797477D01*
X172101767Y-113795154D01*
X172101762Y-113795151D01*
X171904225Y-113703039D01*
X171904224Y-113703039D01*
X171899243Y-113700716D01*
X171893935Y-113699294D01*
X171893933Y-113699293D01*
X171683402Y-113642881D01*
X171683400Y-113642881D01*
X171678087Y-113641457D01*
X171450000Y-113621502D01*
X171221913Y-113641457D01*
X171216600Y-113642881D01*
X171216598Y-113642881D01*
X171006067Y-113699293D01*
X171006065Y-113699294D01*
X171000757Y-113700716D01*
X170995776Y-113703039D01*
X170995775Y-113703039D01*
X170798238Y-113795151D01*
X170798233Y-113795154D01*
X170793251Y-113797477D01*
X170711120Y-113854986D01*
X170610211Y-113925643D01*
X170610208Y-113925645D01*
X170605700Y-113928802D01*
X170443802Y-114090700D01*
X170440645Y-114095208D01*
X170440643Y-114095211D01*
X170425911Y-114116251D01*
X170312477Y-114278251D01*
X170310154Y-114283233D01*
X170310151Y-114283238D01*
X170301899Y-114300935D01*
X170215716Y-114485757D01*
X170214294Y-114491065D01*
X170214293Y-114491067D01*
X170160265Y-114692701D01*
X170156457Y-114706913D01*
X170136502Y-114935000D01*
X170156457Y-115163087D01*
X170157881Y-115168400D01*
X170157881Y-115168402D01*
X170198877Y-115321400D01*
X170197187Y-115392376D01*
X170157393Y-115451172D01*
X170092129Y-115479120D01*
X170077170Y-115480011D01*
X168500933Y-115480011D01*
X168432812Y-115460009D01*
X168411838Y-115443106D01*
X168145250Y-115176518D01*
X168137678Y-115168197D01*
X168133553Y-115161697D01*
X168083733Y-115114913D01*
X168080892Y-115112159D01*
X168061094Y-115092361D01*
X168057969Y-115089937D01*
X168057960Y-115089929D01*
X168057874Y-115089863D01*
X168048849Y-115082155D01*
X168022285Y-115057210D01*
X168016506Y-115051783D01*
X167998669Y-115041977D01*
X167982153Y-115031127D01*
X167966067Y-115018650D01*
X167925334Y-115001024D01*
X167914682Y-114995805D01*
X167912059Y-114994363D01*
X167909173Y-114992776D01*
X167859120Y-114942425D01*
X167844233Y-114873007D01*
X167859049Y-114822438D01*
X167929198Y-114692701D01*
X167987682Y-114503768D01*
X168008355Y-114307075D01*
X167997932Y-114192545D01*
X167990989Y-114116251D01*
X167990988Y-114116248D01*
X167990430Y-114110112D01*
X167986045Y-114095211D01*
X167936330Y-113926294D01*
X167934590Y-113920381D01*
X167911040Y-113875333D01*
X167869121Y-113795151D01*
X167842960Y-113745110D01*
X167719032Y-113590975D01*
X167567526Y-113463846D01*
X167562128Y-113460879D01*
X167562123Y-113460875D01*
X167399608Y-113371533D01*
X167399609Y-113371533D01*
X167394213Y-113368567D01*
X167388346Y-113366706D01*
X167388344Y-113366705D01*
X167353144Y-113355539D01*
X167294260Y-113315875D01*
X167266168Y-113250673D01*
X167277786Y-113180634D01*
X167302148Y-113146342D01*
X168016085Y-112432405D01*
X168078397Y-112398379D01*
X168105180Y-112395500D01*
X173275980Y-112395500D01*
X173287214Y-112396030D01*
X173294719Y-112397708D01*
X173363012Y-112395562D01*
X173366969Y-112395500D01*
X173394983Y-112395500D01*
X173398908Y-112395004D01*
X173398909Y-112395004D01*
X173399004Y-112394992D01*
X173410849Y-112394059D01*
X173440670Y-112393122D01*
X173447282Y-112392914D01*
X173447283Y-112392914D01*
X173455205Y-112392665D01*
X173474749Y-112386987D01*
X173494112Y-112382977D01*
X173506440Y-112381420D01*
X173506442Y-112381420D01*
X173514299Y-112380427D01*
X173521663Y-112377511D01*
X173521668Y-112377510D01*
X173555556Y-112364093D01*
X173566785Y-112360248D01*
X173583465Y-112355402D01*
X173609393Y-112347869D01*
X173616220Y-112343831D01*
X173616223Y-112343830D01*
X173626906Y-112337512D01*
X173644664Y-112328812D01*
X173656215Y-112324239D01*
X173656221Y-112324235D01*
X173663588Y-112321319D01*
X173699491Y-112295234D01*
X173709410Y-112288719D01*
X173740768Y-112270174D01*
X173740772Y-112270171D01*
X173747598Y-112266134D01*
X173761982Y-112251750D01*
X173777016Y-112238909D01*
X173787073Y-112231602D01*
X173793487Y-112226942D01*
X173821778Y-112192744D01*
X173829767Y-112183965D01*
X174213982Y-111799750D01*
X174276294Y-111765724D01*
X174335688Y-111767138D01*
X174391598Y-111782119D01*
X174391600Y-111782119D01*
X174396913Y-111783543D01*
X174625000Y-111803498D01*
X174853087Y-111783543D01*
X174858400Y-111782119D01*
X174858402Y-111782119D01*
X175068933Y-111725707D01*
X175068935Y-111725706D01*
X175074243Y-111724284D01*
X175080235Y-111721490D01*
X175276762Y-111629849D01*
X175276767Y-111629846D01*
X175281749Y-111627523D01*
X175386611Y-111554098D01*
X175464789Y-111499357D01*
X175464792Y-111499355D01*
X175469300Y-111496198D01*
X175631198Y-111334300D01*
X175762523Y-111146749D01*
X175764846Y-111141767D01*
X175764849Y-111141762D01*
X175856961Y-110944225D01*
X175856961Y-110944224D01*
X175859284Y-110939243D01*
X175869527Y-110901018D01*
X175908245Y-110756522D01*
X177152273Y-110756522D01*
X177199764Y-110933761D01*
X177203510Y-110944053D01*
X177295586Y-111141511D01*
X177301069Y-111151007D01*
X177426028Y-111329467D01*
X177433084Y-111337875D01*
X177587125Y-111491916D01*
X177595533Y-111498972D01*
X177773993Y-111623931D01*
X177783489Y-111629414D01*
X177980947Y-111721490D01*
X177991239Y-111725236D01*
X178163503Y-111771394D01*
X178177599Y-111771058D01*
X178181000Y-111763116D01*
X178181000Y-111757967D01*
X178689000Y-111757967D01*
X178692973Y-111771498D01*
X178701522Y-111772727D01*
X178878761Y-111725236D01*
X178889053Y-111721490D01*
X179086511Y-111629414D01*
X179096007Y-111623931D01*
X179274467Y-111498972D01*
X179282875Y-111491916D01*
X179436916Y-111337875D01*
X179443972Y-111329467D01*
X179568931Y-111151007D01*
X179574414Y-111141511D01*
X179666490Y-110944053D01*
X179670236Y-110933761D01*
X179716394Y-110761497D01*
X179716058Y-110747401D01*
X179708116Y-110744000D01*
X178707115Y-110744000D01*
X178691876Y-110748475D01*
X178690671Y-110749865D01*
X178689000Y-110757548D01*
X178689000Y-111757967D01*
X178181000Y-111757967D01*
X178181000Y-110762115D01*
X178176525Y-110746876D01*
X178175135Y-110745671D01*
X178167452Y-110744000D01*
X177167033Y-110744000D01*
X177153502Y-110747973D01*
X177152273Y-110756522D01*
X175908245Y-110756522D01*
X175917119Y-110723402D01*
X175917119Y-110723400D01*
X175918543Y-110718087D01*
X175938498Y-110490000D01*
X175918543Y-110261913D01*
X175908244Y-110223478D01*
X175906911Y-110218503D01*
X177153606Y-110218503D01*
X177153942Y-110232599D01*
X177161884Y-110236000D01*
X178162885Y-110236000D01*
X178178124Y-110231525D01*
X178179329Y-110230135D01*
X178181000Y-110222452D01*
X178181000Y-110217885D01*
X178689000Y-110217885D01*
X178693475Y-110233124D01*
X178694865Y-110234329D01*
X178702548Y-110236000D01*
X179702967Y-110236000D01*
X179716498Y-110232027D01*
X179717727Y-110223478D01*
X179670236Y-110046239D01*
X179666490Y-110035947D01*
X179574414Y-109838489D01*
X179568931Y-109828993D01*
X179443972Y-109650533D01*
X179436916Y-109642125D01*
X179282875Y-109488084D01*
X179274467Y-109481028D01*
X179096007Y-109356069D01*
X179086511Y-109350586D01*
X178889053Y-109258510D01*
X178878761Y-109254764D01*
X178706497Y-109208606D01*
X178692401Y-109208942D01*
X178689000Y-109216884D01*
X178689000Y-110217885D01*
X178181000Y-110217885D01*
X178181000Y-109222033D01*
X178177027Y-109208502D01*
X178168478Y-109207273D01*
X177991239Y-109254764D01*
X177980947Y-109258510D01*
X177783489Y-109350586D01*
X177773993Y-109356069D01*
X177595533Y-109481028D01*
X177587125Y-109488084D01*
X177433084Y-109642125D01*
X177426028Y-109650533D01*
X177301069Y-109828993D01*
X177295586Y-109838489D01*
X177203510Y-110035947D01*
X177199764Y-110046239D01*
X177153606Y-110218503D01*
X175906911Y-110218503D01*
X175860707Y-110046067D01*
X175860706Y-110046065D01*
X175859284Y-110040757D01*
X175845084Y-110010305D01*
X175764849Y-109838238D01*
X175764846Y-109838233D01*
X175762523Y-109833251D01*
X175631198Y-109645700D01*
X175469300Y-109483802D01*
X175464792Y-109480645D01*
X175464789Y-109480643D01*
X175314229Y-109375220D01*
X175281749Y-109352477D01*
X175276767Y-109350154D01*
X175276762Y-109350151D01*
X175079225Y-109258039D01*
X175079224Y-109258039D01*
X175074243Y-109255716D01*
X175068935Y-109254294D01*
X175068933Y-109254293D01*
X174858402Y-109197881D01*
X174858400Y-109197881D01*
X174853087Y-109196457D01*
X174625000Y-109176502D01*
X174396913Y-109196457D01*
X174391600Y-109197881D01*
X174391598Y-109197881D01*
X174181067Y-109254293D01*
X174181065Y-109254294D01*
X174175757Y-109255716D01*
X174170776Y-109258039D01*
X174170775Y-109258039D01*
X173973238Y-109350151D01*
X173973233Y-109350154D01*
X173968251Y-109352477D01*
X173935771Y-109375220D01*
X173785211Y-109480643D01*
X173785208Y-109480645D01*
X173780700Y-109483802D01*
X173618802Y-109645700D01*
X173487477Y-109833251D01*
X173485154Y-109838233D01*
X173485151Y-109838238D01*
X173404916Y-110010305D01*
X173390716Y-110040757D01*
X173389294Y-110046065D01*
X173389293Y-110046067D01*
X173341756Y-110223478D01*
X173331457Y-110261913D01*
X173311502Y-110490000D01*
X173331457Y-110718087D01*
X173332880Y-110723398D01*
X173332882Y-110723409D01*
X173347861Y-110779310D01*
X173346172Y-110850287D01*
X173315250Y-110901017D01*
X173128672Y-111087595D01*
X173066360Y-111121621D01*
X173039577Y-111124500D01*
X172160678Y-111124500D01*
X172092557Y-111104498D01*
X172046064Y-111050842D01*
X172035960Y-110980568D01*
X172045230Y-110949453D01*
X172045078Y-110949398D01*
X172046008Y-110946842D01*
X172046482Y-110945252D01*
X172046961Y-110944226D01*
X172046963Y-110944220D01*
X172049284Y-110939243D01*
X172059527Y-110901018D01*
X172107119Y-110723402D01*
X172107119Y-110723400D01*
X172108543Y-110718087D01*
X172128498Y-110490000D01*
X172108543Y-110261913D01*
X172098244Y-110223478D01*
X172050707Y-110046067D01*
X172050706Y-110046065D01*
X172049284Y-110040757D01*
X172035084Y-110010305D01*
X171954849Y-109838238D01*
X171954846Y-109838233D01*
X171952523Y-109833251D01*
X171821198Y-109645700D01*
X171659300Y-109483802D01*
X171654792Y-109480645D01*
X171654789Y-109480643D01*
X171504229Y-109375220D01*
X171471749Y-109352477D01*
X171466767Y-109350154D01*
X171466762Y-109350151D01*
X171269225Y-109258039D01*
X171269224Y-109258039D01*
X171264243Y-109255716D01*
X171258935Y-109254294D01*
X171258933Y-109254293D01*
X171048402Y-109197881D01*
X171048400Y-109197881D01*
X171043087Y-109196457D01*
X170815000Y-109176502D01*
X170586913Y-109196457D01*
X170581600Y-109197881D01*
X170581598Y-109197881D01*
X170371067Y-109254293D01*
X170371065Y-109254294D01*
X170365757Y-109255716D01*
X170360776Y-109258039D01*
X170360775Y-109258039D01*
X170163238Y-109350151D01*
X170163233Y-109350154D01*
X170158251Y-109352477D01*
X170125771Y-109375220D01*
X169975211Y-109480643D01*
X169975208Y-109480645D01*
X169970700Y-109483802D01*
X169808802Y-109645700D01*
X169677477Y-109833251D01*
X169675154Y-109838233D01*
X169675151Y-109838238D01*
X169594916Y-110010305D01*
X169580716Y-110040757D01*
X169579294Y-110046065D01*
X169579293Y-110046067D01*
X169531756Y-110223478D01*
X169521457Y-110261913D01*
X169501502Y-110490000D01*
X169521457Y-110718087D01*
X169522881Y-110723400D01*
X169522881Y-110723402D01*
X169570474Y-110901018D01*
X169580716Y-110939243D01*
X169583037Y-110944220D01*
X169583039Y-110944226D01*
X169583518Y-110945252D01*
X169583593Y-110945747D01*
X169584922Y-110949398D01*
X169584188Y-110949665D01*
X169594178Y-111015444D01*
X169565197Y-111080256D01*
X169505776Y-111119111D01*
X169469322Y-111124500D01*
X168350678Y-111124500D01*
X168282557Y-111104498D01*
X168236064Y-111050842D01*
X168225960Y-110980568D01*
X168235230Y-110949453D01*
X168235078Y-110949398D01*
X168236008Y-110946842D01*
X168236482Y-110945252D01*
X168236961Y-110944226D01*
X168236963Y-110944220D01*
X168239284Y-110939243D01*
X168249527Y-110901018D01*
X168297119Y-110723402D01*
X168297119Y-110723400D01*
X168298543Y-110718087D01*
X168318498Y-110490000D01*
X168298543Y-110261913D01*
X168288244Y-110223478D01*
X168240707Y-110046067D01*
X168240706Y-110046065D01*
X168239284Y-110040757D01*
X168225084Y-110010305D01*
X168144849Y-109838238D01*
X168144846Y-109838233D01*
X168142523Y-109833251D01*
X168011198Y-109645700D01*
X167849300Y-109483802D01*
X167844792Y-109480645D01*
X167844789Y-109480643D01*
X167694229Y-109375220D01*
X167661749Y-109352477D01*
X167656767Y-109350154D01*
X167656762Y-109350151D01*
X167459225Y-109258039D01*
X167459224Y-109258039D01*
X167454243Y-109255716D01*
X167448935Y-109254294D01*
X167448933Y-109254293D01*
X167238402Y-109197881D01*
X167238400Y-109197881D01*
X167233087Y-109196457D01*
X167005000Y-109176502D01*
X166776913Y-109196457D01*
X166771600Y-109197881D01*
X166771598Y-109197881D01*
X166561067Y-109254293D01*
X166561065Y-109254294D01*
X166555757Y-109255716D01*
X166550776Y-109258039D01*
X166550775Y-109258039D01*
X166353238Y-109350151D01*
X166353233Y-109350154D01*
X166348251Y-109352477D01*
X166315771Y-109375220D01*
X166165211Y-109480643D01*
X166165208Y-109480645D01*
X166160700Y-109483802D01*
X165998802Y-109645700D01*
X165995645Y-109650208D01*
X165995643Y-109650211D01*
X165964713Y-109694384D01*
X165909256Y-109738712D01*
X165838636Y-109746021D01*
X165775276Y-109713990D01*
X165739291Y-109652789D01*
X165735500Y-109622113D01*
X165735500Y-107630422D01*
X165755502Y-107562301D01*
X165772405Y-107541327D01*
X169303483Y-104010250D01*
X169311809Y-104002674D01*
X169318303Y-103998553D01*
X169365086Y-103948734D01*
X169367840Y-103945893D01*
X169387639Y-103926094D01*
X169390063Y-103922969D01*
X169390071Y-103922960D01*
X169390137Y-103922874D01*
X169397845Y-103913849D01*
X169422790Y-103887285D01*
X169428217Y-103881506D01*
X169438023Y-103863669D01*
X169448873Y-103847153D01*
X169461350Y-103831067D01*
X169478976Y-103790334D01*
X169484193Y-103779686D01*
X169501749Y-103747751D01*
X169505569Y-103740803D01*
X169507540Y-103733128D01*
X169507542Y-103733122D01*
X169510631Y-103721089D01*
X169517034Y-103702387D01*
X169525117Y-103683708D01*
X169526357Y-103675882D01*
X169527925Y-103670484D01*
X169566140Y-103610649D01*
X169630637Y-103580974D01*
X169700939Y-103590879D01*
X169752134Y-103633370D01*
X169805639Y-103709784D01*
X169805643Y-103709789D01*
X169808802Y-103714300D01*
X169970700Y-103876198D01*
X169975208Y-103879355D01*
X169975211Y-103879357D01*
X169988140Y-103888410D01*
X170158251Y-104007523D01*
X170163233Y-104009846D01*
X170163238Y-104009849D01*
X170360775Y-104101961D01*
X170365757Y-104104284D01*
X170371065Y-104105706D01*
X170371067Y-104105707D01*
X170581598Y-104162119D01*
X170581600Y-104162119D01*
X170586913Y-104163543D01*
X170815000Y-104183498D01*
X171043087Y-104163543D01*
X171048400Y-104162119D01*
X171048402Y-104162119D01*
X171258933Y-104105707D01*
X171258935Y-104105706D01*
X171264243Y-104104284D01*
X171269225Y-104101961D01*
X171466762Y-104009849D01*
X171466767Y-104009846D01*
X171471749Y-104007523D01*
X171641860Y-103888410D01*
X171654789Y-103879357D01*
X171654792Y-103879355D01*
X171659300Y-103876198D01*
X171821198Y-103714300D01*
X171824361Y-103709784D01*
X171893775Y-103610649D01*
X171952523Y-103526749D01*
X171954846Y-103521767D01*
X171954849Y-103521762D01*
X172046961Y-103324225D01*
X172046961Y-103324224D01*
X172049284Y-103319243D01*
X172086384Y-103180787D01*
X172107119Y-103103402D01*
X172107119Y-103103400D01*
X172108543Y-103098087D01*
X172128498Y-102870000D01*
X173311502Y-102870000D01*
X173331457Y-103098087D01*
X173332881Y-103103400D01*
X173332881Y-103103402D01*
X173353617Y-103180787D01*
X173390716Y-103319243D01*
X173393039Y-103324224D01*
X173393039Y-103324225D01*
X173485151Y-103521762D01*
X173485154Y-103521767D01*
X173487477Y-103526749D01*
X173546225Y-103610649D01*
X173615640Y-103709784D01*
X173618802Y-103714300D01*
X173780700Y-103876198D01*
X173785208Y-103879355D01*
X173785211Y-103879357D01*
X173798140Y-103888410D01*
X173968251Y-104007523D01*
X173973233Y-104009846D01*
X173973238Y-104009849D01*
X174170775Y-104101961D01*
X174175757Y-104104284D01*
X174181065Y-104105706D01*
X174181067Y-104105707D01*
X174391598Y-104162119D01*
X174391600Y-104162119D01*
X174396913Y-104163543D01*
X174625000Y-104183498D01*
X174853087Y-104163543D01*
X174858400Y-104162119D01*
X174858402Y-104162119D01*
X175068933Y-104105707D01*
X175068935Y-104105706D01*
X175074243Y-104104284D01*
X175079225Y-104101961D01*
X175276762Y-104009849D01*
X175276767Y-104009846D01*
X175281749Y-104007523D01*
X175451860Y-103888410D01*
X175464789Y-103879357D01*
X175464792Y-103879355D01*
X175469300Y-103876198D01*
X175631198Y-103714300D01*
X175634361Y-103709784D01*
X175703775Y-103610649D01*
X175762523Y-103526749D01*
X175764846Y-103521767D01*
X175764849Y-103521762D01*
X175856961Y-103324225D01*
X175856961Y-103324224D01*
X175859284Y-103319243D01*
X175896384Y-103180787D01*
X175917119Y-103103402D01*
X175917119Y-103103400D01*
X175918543Y-103098087D01*
X175938498Y-102870000D01*
X177121502Y-102870000D01*
X177141457Y-103098087D01*
X177142881Y-103103400D01*
X177142881Y-103103402D01*
X177163617Y-103180787D01*
X177200716Y-103319243D01*
X177203039Y-103324224D01*
X177203039Y-103324225D01*
X177295151Y-103521762D01*
X177295154Y-103521767D01*
X177297477Y-103526749D01*
X177356225Y-103610649D01*
X177425640Y-103709784D01*
X177428802Y-103714300D01*
X177590700Y-103876198D01*
X177595208Y-103879355D01*
X177595211Y-103879357D01*
X177608140Y-103888410D01*
X177778251Y-104007523D01*
X177783233Y-104009846D01*
X177783238Y-104009849D01*
X177980775Y-104101961D01*
X177985757Y-104104284D01*
X177991065Y-104105706D01*
X177991067Y-104105707D01*
X178201598Y-104162119D01*
X178201600Y-104162119D01*
X178206913Y-104163543D01*
X178435000Y-104183498D01*
X178663087Y-104163543D01*
X178668400Y-104162119D01*
X178668402Y-104162119D01*
X178878933Y-104105707D01*
X178878935Y-104105706D01*
X178884243Y-104104284D01*
X178889225Y-104101961D01*
X179086762Y-104009849D01*
X179086767Y-104009846D01*
X179091749Y-104007523D01*
X179261860Y-103888410D01*
X179274789Y-103879357D01*
X179274792Y-103879355D01*
X179279300Y-103876198D01*
X179441198Y-103714300D01*
X179444361Y-103709784D01*
X179513775Y-103610649D01*
X179572523Y-103526749D01*
X179574846Y-103521767D01*
X179574849Y-103521762D01*
X179666961Y-103324225D01*
X179666961Y-103324224D01*
X179669284Y-103319243D01*
X179706384Y-103180787D01*
X179727119Y-103103402D01*
X179727119Y-103103400D01*
X179728543Y-103098087D01*
X179748498Y-102870000D01*
X179728543Y-102641913D01*
X179715201Y-102592121D01*
X179670707Y-102426067D01*
X179670706Y-102426065D01*
X179669284Y-102420757D01*
X179639788Y-102357502D01*
X179574849Y-102218238D01*
X179574846Y-102218233D01*
X179572523Y-102213251D01*
X179441198Y-102025700D01*
X179279300Y-101863802D01*
X179274792Y-101860645D01*
X179274789Y-101860643D01*
X179124229Y-101755220D01*
X179091749Y-101732477D01*
X179086767Y-101730154D01*
X179086762Y-101730151D01*
X178889225Y-101638039D01*
X178889224Y-101638039D01*
X178884243Y-101635716D01*
X178878935Y-101634294D01*
X178878933Y-101634293D01*
X178668402Y-101577881D01*
X178668400Y-101577881D01*
X178663087Y-101576457D01*
X178435000Y-101556502D01*
X178206913Y-101576457D01*
X178201600Y-101577881D01*
X178201598Y-101577881D01*
X177991067Y-101634293D01*
X177991065Y-101634294D01*
X177985757Y-101635716D01*
X177980776Y-101638039D01*
X177980775Y-101638039D01*
X177783238Y-101730151D01*
X177783233Y-101730154D01*
X177778251Y-101732477D01*
X177745771Y-101755220D01*
X177595211Y-101860643D01*
X177595208Y-101860645D01*
X177590700Y-101863802D01*
X177428802Y-102025700D01*
X177297477Y-102213251D01*
X177295154Y-102218233D01*
X177295151Y-102218238D01*
X177230212Y-102357502D01*
X177200716Y-102420757D01*
X177199294Y-102426065D01*
X177199293Y-102426067D01*
X177154799Y-102592121D01*
X177141457Y-102641913D01*
X177121502Y-102870000D01*
X175938498Y-102870000D01*
X175918543Y-102641913D01*
X175905201Y-102592121D01*
X175860707Y-102426067D01*
X175860706Y-102426065D01*
X175859284Y-102420757D01*
X175829788Y-102357502D01*
X175764849Y-102218238D01*
X175764846Y-102218233D01*
X175762523Y-102213251D01*
X175631198Y-102025700D01*
X175469300Y-101863802D01*
X175464792Y-101860645D01*
X175464789Y-101860643D01*
X175314229Y-101755220D01*
X175281749Y-101732477D01*
X175276767Y-101730154D01*
X175276762Y-101730151D01*
X175079225Y-101638039D01*
X175079224Y-101638039D01*
X175074243Y-101635716D01*
X175068935Y-101634294D01*
X175068933Y-101634293D01*
X174858402Y-101577881D01*
X174858400Y-101577881D01*
X174853087Y-101576457D01*
X174625000Y-101556502D01*
X174396913Y-101576457D01*
X174391600Y-101577881D01*
X174391598Y-101577881D01*
X174181067Y-101634293D01*
X174181065Y-101634294D01*
X174175757Y-101635716D01*
X174170776Y-101638039D01*
X174170775Y-101638039D01*
X173973238Y-101730151D01*
X173973233Y-101730154D01*
X173968251Y-101732477D01*
X173935771Y-101755220D01*
X173785211Y-101860643D01*
X173785208Y-101860645D01*
X173780700Y-101863802D01*
X173618802Y-102025700D01*
X173487477Y-102213251D01*
X173485154Y-102218233D01*
X173485151Y-102218238D01*
X173420212Y-102357502D01*
X173390716Y-102420757D01*
X173389294Y-102426065D01*
X173389293Y-102426067D01*
X173344799Y-102592121D01*
X173331457Y-102641913D01*
X173311502Y-102870000D01*
X172128498Y-102870000D01*
X172108543Y-102641913D01*
X172095201Y-102592121D01*
X172050707Y-102426067D01*
X172050706Y-102426065D01*
X172049284Y-102420757D01*
X172019788Y-102357502D01*
X171954849Y-102218238D01*
X171954846Y-102218233D01*
X171952523Y-102213251D01*
X171821198Y-102025700D01*
X171659300Y-101863802D01*
X171654792Y-101860645D01*
X171654789Y-101860643D01*
X171504229Y-101755220D01*
X171459901Y-101699763D01*
X171450500Y-101652007D01*
X171450500Y-70569020D01*
X171451029Y-70557791D01*
X171452708Y-70550281D01*
X171450562Y-70482001D01*
X171450500Y-70478044D01*
X171450500Y-70450017D01*
X171449989Y-70445971D01*
X171449057Y-70434136D01*
X171447913Y-70397720D01*
X171447664Y-70389795D01*
X171441987Y-70370253D01*
X171437978Y-70350894D01*
X171437819Y-70349633D01*
X171435427Y-70330701D01*
X171432511Y-70323337D01*
X171432510Y-70323332D01*
X171419088Y-70289435D01*
X171415249Y-70278224D01*
X171402868Y-70235607D01*
X171392511Y-70218093D01*
X171383815Y-70200343D01*
X171379239Y-70188785D01*
X171379236Y-70188780D01*
X171376319Y-70181412D01*
X171350233Y-70145507D01*
X171343716Y-70135585D01*
X171325172Y-70104228D01*
X171325170Y-70104225D01*
X171321134Y-70097401D01*
X171306747Y-70083014D01*
X171293906Y-70067980D01*
X171286602Y-70057927D01*
X171281942Y-70051513D01*
X171247750Y-70023227D01*
X171238971Y-70015238D01*
X164581958Y-63358225D01*
X164547932Y-63295913D01*
X164550495Y-63232503D01*
X164571408Y-63163671D01*
X164601640Y-62934041D01*
X164603327Y-62865000D01*
X164597032Y-62788434D01*
X164584773Y-62639318D01*
X164584772Y-62639312D01*
X164584349Y-62634167D01*
X164527925Y-62409533D01*
X164435570Y-62197131D01*
X164309764Y-62002665D01*
X164153887Y-61831358D01*
X164149836Y-61828159D01*
X164149832Y-61828155D01*
X163976177Y-61691011D01*
X163976172Y-61691008D01*
X163972123Y-61687810D01*
X163967607Y-61685317D01*
X163967604Y-61685315D01*
X163773879Y-61578373D01*
X163773875Y-61578371D01*
X163769355Y-61575876D01*
X163764486Y-61574152D01*
X163764482Y-61574150D01*
X163555903Y-61500288D01*
X163555899Y-61500287D01*
X163551028Y-61498562D01*
X163545935Y-61497655D01*
X163545932Y-61497654D01*
X163328095Y-61458851D01*
X163328089Y-61458850D01*
X163323006Y-61457945D01*
X163250096Y-61457054D01*
X163096581Y-61455179D01*
X163096579Y-61455179D01*
X163091411Y-61455116D01*
X162862464Y-61490150D01*
X162642314Y-61562106D01*
X162637726Y-61564494D01*
X162637722Y-61564496D01*
X162486677Y-61643125D01*
X162436872Y-61669052D01*
X162432739Y-61672155D01*
X162432736Y-61672157D01*
X162360088Y-61726703D01*
X162251655Y-61808117D01*
X162234170Y-61826414D01*
X162172646Y-61861844D01*
X162101733Y-61858387D01*
X162043947Y-61817141D01*
X162025094Y-61783592D01*
X162003768Y-61726705D01*
X162003767Y-61726703D01*
X162000615Y-61718295D01*
X161913261Y-61601739D01*
X161796705Y-61514385D01*
X161660316Y-61463255D01*
X161598134Y-61456500D01*
X159701866Y-61456500D01*
X159639684Y-61463255D01*
X159503295Y-61514385D01*
X159386739Y-61601739D01*
X159299385Y-61718295D01*
X159248255Y-61854684D01*
X159241500Y-61916866D01*
X159241500Y-63322577D01*
X159221498Y-63390698D01*
X159204595Y-63411672D01*
X159143161Y-63473106D01*
X159080849Y-63507132D01*
X159054066Y-63510011D01*
X148766151Y-63510011D01*
X148698030Y-63490009D01*
X148651537Y-63436353D01*
X148641433Y-63366079D01*
X148645592Y-63347383D01*
X148699905Y-63168617D01*
X148701408Y-63163671D01*
X148731640Y-62934041D01*
X148733327Y-62865000D01*
X148727032Y-62788434D01*
X148714773Y-62639318D01*
X148714772Y-62639312D01*
X148714349Y-62634167D01*
X148657925Y-62409533D01*
X148565570Y-62197131D01*
X148439764Y-62002665D01*
X148283887Y-61831358D01*
X148279836Y-61828159D01*
X148279832Y-61828155D01*
X148106178Y-61691012D01*
X148106175Y-61691010D01*
X148102123Y-61687810D01*
X148020607Y-61642811D01*
X147970636Y-61592378D01*
X147955500Y-61532502D01*
X147955500Y-59769032D01*
X147956030Y-59757793D01*
X147957709Y-59750281D01*
X147955562Y-59681969D01*
X147955500Y-59678012D01*
X147955500Y-59650017D01*
X147954992Y-59645994D01*
X147954059Y-59634152D01*
X147952914Y-59597720D01*
X147952665Y-59589795D01*
X147946987Y-59570251D01*
X147942977Y-59550888D01*
X147941420Y-59538560D01*
X147941420Y-59538558D01*
X147940427Y-59530701D01*
X147937511Y-59523337D01*
X147937510Y-59523332D01*
X147924093Y-59489444D01*
X147920248Y-59478215D01*
X147910080Y-59443219D01*
X147907869Y-59435607D01*
X147897510Y-59418091D01*
X147888813Y-59400341D01*
X147881319Y-59381412D01*
X147855238Y-59345514D01*
X147848722Y-59335594D01*
X147830173Y-59304229D01*
X147830171Y-59304226D01*
X147826135Y-59297402D01*
X147811747Y-59283014D01*
X147798906Y-59267980D01*
X147791602Y-59257927D01*
X147786942Y-59251513D01*
X147752750Y-59223227D01*
X147743971Y-59215238D01*
X147190250Y-58661517D01*
X147182674Y-58653191D01*
X147178553Y-58646697D01*
X147128734Y-58599914D01*
X147125893Y-58597160D01*
X147106094Y-58577361D01*
X147102969Y-58574937D01*
X147102960Y-58574929D01*
X147102874Y-58574863D01*
X147093849Y-58567155D01*
X147067285Y-58542210D01*
X147061506Y-58536783D01*
X147043669Y-58526977D01*
X147027153Y-58516127D01*
X147011067Y-58503650D01*
X146970334Y-58486024D01*
X146959686Y-58480807D01*
X146930787Y-58464920D01*
X146920803Y-58459431D01*
X146913128Y-58457460D01*
X146913122Y-58457458D01*
X146901089Y-58454369D01*
X146882387Y-58447966D01*
X146863708Y-58439883D01*
X146823913Y-58433580D01*
X146819873Y-58432940D01*
X146808260Y-58430535D01*
X146765282Y-58419500D01*
X146744935Y-58419500D01*
X146725224Y-58417949D01*
X146712950Y-58416005D01*
X146705121Y-58414765D01*
X146697229Y-58415511D01*
X146660944Y-58418941D01*
X146649086Y-58419500D01*
X142319020Y-58419500D01*
X142307786Y-58418970D01*
X142300281Y-58417292D01*
X142232571Y-58419420D01*
X142231988Y-58419438D01*
X142228031Y-58419500D01*
X142200017Y-58419500D01*
X142196092Y-58419996D01*
X142196091Y-58419996D01*
X142195996Y-58420008D01*
X142184151Y-58420941D01*
X142154330Y-58421878D01*
X142147718Y-58422086D01*
X142147717Y-58422086D01*
X142139795Y-58422335D01*
X142120252Y-58428013D01*
X142100888Y-58432023D01*
X142088560Y-58433580D01*
X142088558Y-58433580D01*
X142080701Y-58434573D01*
X142073337Y-58437489D01*
X142073332Y-58437490D01*
X142039444Y-58450907D01*
X142028215Y-58454752D01*
X142018902Y-58457458D01*
X141985607Y-58467131D01*
X141978781Y-58471168D01*
X141968091Y-58477490D01*
X141950341Y-58486187D01*
X141931412Y-58493681D01*
X141924996Y-58498342D01*
X141924995Y-58498343D01*
X141895519Y-58519759D01*
X141885595Y-58526278D01*
X141854224Y-58544830D01*
X141854219Y-58544834D01*
X141847401Y-58548866D01*
X141833014Y-58563253D01*
X141817980Y-58576094D01*
X141801513Y-58588058D01*
X141796460Y-58594166D01*
X141773228Y-58622249D01*
X141765238Y-58631029D01*
X140576517Y-59819750D01*
X140568191Y-59827326D01*
X140561697Y-59831447D01*
X140556274Y-59837222D01*
X140514915Y-59881265D01*
X140512160Y-59884107D01*
X140492361Y-59903906D01*
X140489937Y-59907031D01*
X140489929Y-59907040D01*
X140489863Y-59907126D01*
X140482155Y-59916151D01*
X140451783Y-59948494D01*
X140447965Y-59955438D01*
X140447964Y-59955440D01*
X140441978Y-59966329D01*
X140431127Y-59982847D01*
X140418650Y-59998933D01*
X140401024Y-60039666D01*
X140395807Y-60050314D01*
X140374431Y-60089197D01*
X140372460Y-60096872D01*
X140372458Y-60096878D01*
X140369369Y-60108911D01*
X140362966Y-60127613D01*
X140354883Y-60146292D01*
X140353644Y-60154117D01*
X140347940Y-60190127D01*
X140345535Y-60201740D01*
X140334500Y-60244718D01*
X140334500Y-60265065D01*
X140332949Y-60284776D01*
X140329765Y-60304879D01*
X140330511Y-60312771D01*
X140333941Y-60349056D01*
X140334500Y-60360914D01*
X140334500Y-65325980D01*
X140333970Y-65337214D01*
X140332292Y-65344719D01*
X140332541Y-65352638D01*
X140334438Y-65413012D01*
X140334500Y-65416969D01*
X140334500Y-65444983D01*
X140334996Y-65448908D01*
X140334996Y-65448909D01*
X140335008Y-65449004D01*
X140335941Y-65460849D01*
X140337335Y-65505205D01*
X140339547Y-65512817D01*
X140343013Y-65524748D01*
X140347023Y-65544112D01*
X140349573Y-65564299D01*
X140352489Y-65571663D01*
X140352490Y-65571668D01*
X140365907Y-65605556D01*
X140369752Y-65616785D01*
X140382131Y-65659393D01*
X140386169Y-65666220D01*
X140386170Y-65666223D01*
X140392488Y-65676906D01*
X140401188Y-65694664D01*
X140405761Y-65706215D01*
X140405765Y-65706221D01*
X140408681Y-65713588D01*
X140413339Y-65719999D01*
X140413340Y-65720001D01*
X140434764Y-65749488D01*
X140441281Y-65759410D01*
X140459826Y-65790768D01*
X140459829Y-65790772D01*
X140463866Y-65797598D01*
X140478250Y-65811982D01*
X140491091Y-65827016D01*
X140503058Y-65843487D01*
X140509166Y-65848540D01*
X140537255Y-65871777D01*
X140546035Y-65879767D01*
X142359239Y-67692972D01*
X142366815Y-67701298D01*
X142370936Y-67707792D01*
X142376711Y-67713215D01*
X142420754Y-67754574D01*
X142423596Y-67757329D01*
X142443395Y-67777128D01*
X142446520Y-67779552D01*
X142446529Y-67779560D01*
X142446615Y-67779626D01*
X142455640Y-67787334D01*
X142487983Y-67817706D01*
X142494927Y-67821524D01*
X142494929Y-67821525D01*
X142505818Y-67827511D01*
X142522336Y-67838362D01*
X142538422Y-67850839D01*
X142579155Y-67868465D01*
X142589803Y-67873682D01*
X142628686Y-67895058D01*
X142636361Y-67897029D01*
X142636367Y-67897031D01*
X142648400Y-67900120D01*
X142667102Y-67906523D01*
X142685781Y-67914606D01*
X142719617Y-67919965D01*
X142729616Y-67921549D01*
X142741229Y-67923954D01*
X142784207Y-67934989D01*
X142804554Y-67934989D01*
X142824266Y-67936540D01*
X142844368Y-67939724D01*
X142852260Y-67938978D01*
X142888545Y-67935548D01*
X142900403Y-67934989D01*
X143372861Y-67934989D01*
X143404196Y-67938948D01*
X143422033Y-67943528D01*
X143422042Y-67943529D01*
X143429718Y-67945500D01*
X143450065Y-67945500D01*
X143469777Y-67947051D01*
X143489879Y-67950235D01*
X143497771Y-67949489D01*
X143534056Y-67946059D01*
X143545914Y-67945500D01*
X161609578Y-67945500D01*
X161677699Y-67965502D01*
X161698673Y-67982405D01*
X166332595Y-72616328D01*
X166366621Y-72678640D01*
X166369500Y-72705423D01*
X166369500Y-101652007D01*
X166349498Y-101720128D01*
X166315771Y-101755220D01*
X166165211Y-101860643D01*
X166165208Y-101860645D01*
X166160700Y-101863802D01*
X165998802Y-102025700D01*
X165867477Y-102213251D01*
X165865154Y-102218233D01*
X165865151Y-102218238D01*
X165800212Y-102357502D01*
X165770716Y-102420757D01*
X165769294Y-102426065D01*
X165769293Y-102426067D01*
X165724799Y-102592121D01*
X165711457Y-102641913D01*
X165691502Y-102870000D01*
X165711457Y-103098087D01*
X165712881Y-103103400D01*
X165712881Y-103103402D01*
X165733617Y-103180787D01*
X165770716Y-103319243D01*
X165773039Y-103324224D01*
X165773039Y-103324225D01*
X165865151Y-103521762D01*
X165865154Y-103521767D01*
X165867477Y-103526749D01*
X165926225Y-103610649D01*
X165995640Y-103709784D01*
X165998802Y-103714300D01*
X166160700Y-103876198D01*
X166165208Y-103879355D01*
X166165211Y-103879357D01*
X166178140Y-103888410D01*
X166348251Y-104007523D01*
X166353233Y-104009846D01*
X166353238Y-104009849D01*
X166550775Y-104101961D01*
X166555757Y-104104284D01*
X166561065Y-104105706D01*
X166561067Y-104105707D01*
X166771598Y-104162119D01*
X166771600Y-104162119D01*
X166776913Y-104163543D01*
X167005000Y-104183498D01*
X167010475Y-104183019D01*
X167010483Y-104183019D01*
X167019328Y-104182245D01*
X167088933Y-104196232D01*
X167139926Y-104245630D01*
X167156118Y-104314756D01*
X167132367Y-104381662D01*
X167119407Y-104396860D01*
X164706517Y-106809750D01*
X164698191Y-106817326D01*
X164691697Y-106821447D01*
X164686274Y-106827222D01*
X164644915Y-106871265D01*
X164642160Y-106874107D01*
X164622361Y-106893906D01*
X164619937Y-106897031D01*
X164619929Y-106897040D01*
X164619863Y-106897126D01*
X164612155Y-106906151D01*
X164581783Y-106938494D01*
X164577965Y-106945438D01*
X164577964Y-106945440D01*
X164571978Y-106956329D01*
X164561127Y-106972847D01*
X164548650Y-106988933D01*
X164531024Y-107029666D01*
X164525807Y-107040314D01*
X164504431Y-107079197D01*
X164502460Y-107086872D01*
X164502458Y-107086878D01*
X164499369Y-107098911D01*
X164492966Y-107117613D01*
X164484883Y-107136292D01*
X164483644Y-107144117D01*
X164477940Y-107180127D01*
X164475535Y-107191740D01*
X164464500Y-107234718D01*
X164464500Y-107255065D01*
X164462949Y-107274776D01*
X164459765Y-107294879D01*
X164460511Y-107302771D01*
X164463941Y-107339056D01*
X164464500Y-107350914D01*
X164464500Y-109622113D01*
X164444498Y-109690234D01*
X164390842Y-109736727D01*
X164320568Y-109746831D01*
X164255988Y-109717337D01*
X164235287Y-109694384D01*
X164204357Y-109650211D01*
X164204355Y-109650208D01*
X164201198Y-109645700D01*
X164039300Y-109483802D01*
X164034792Y-109480645D01*
X164034789Y-109480643D01*
X163884229Y-109375220D01*
X163839901Y-109319763D01*
X163830500Y-109272007D01*
X163830500Y-106759032D01*
X163831030Y-106747793D01*
X163832709Y-106740281D01*
X163830562Y-106671969D01*
X163830500Y-106668012D01*
X163830500Y-106640017D01*
X163829992Y-106635994D01*
X163829059Y-106624152D01*
X163827914Y-106587720D01*
X163827665Y-106579795D01*
X163821987Y-106560251D01*
X163817977Y-106540888D01*
X163816420Y-106528560D01*
X163816420Y-106528558D01*
X163815427Y-106520701D01*
X163812511Y-106513337D01*
X163812510Y-106513332D01*
X163799093Y-106479444D01*
X163795248Y-106468215D01*
X163785080Y-106433219D01*
X163782869Y-106425607D01*
X163772510Y-106408091D01*
X163763813Y-106390341D01*
X163756319Y-106371412D01*
X163730238Y-106335514D01*
X163723722Y-106325594D01*
X163705173Y-106294229D01*
X163705171Y-106294226D01*
X163701135Y-106287402D01*
X163686747Y-106273014D01*
X163673906Y-106257980D01*
X163666602Y-106247927D01*
X163661942Y-106241513D01*
X163627750Y-106213227D01*
X163618971Y-106205238D01*
X160694750Y-103281017D01*
X160660724Y-103218705D01*
X160662139Y-103159310D01*
X160677118Y-103103409D01*
X160677120Y-103103398D01*
X160678543Y-103098087D01*
X160698498Y-102870000D01*
X161881502Y-102870000D01*
X161901457Y-103098087D01*
X161902881Y-103103400D01*
X161902881Y-103103402D01*
X161923617Y-103180787D01*
X161960716Y-103319243D01*
X161963039Y-103324224D01*
X161963039Y-103324225D01*
X162055151Y-103521762D01*
X162055154Y-103521767D01*
X162057477Y-103526749D01*
X162116225Y-103610649D01*
X162185640Y-103709784D01*
X162188802Y-103714300D01*
X162350700Y-103876198D01*
X162355208Y-103879355D01*
X162355211Y-103879357D01*
X162368140Y-103888410D01*
X162538251Y-104007523D01*
X162543233Y-104009846D01*
X162543238Y-104009849D01*
X162740775Y-104101961D01*
X162745757Y-104104284D01*
X162751065Y-104105706D01*
X162751067Y-104105707D01*
X162961598Y-104162119D01*
X162961600Y-104162119D01*
X162966913Y-104163543D01*
X163195000Y-104183498D01*
X163423087Y-104163543D01*
X163428400Y-104162119D01*
X163428402Y-104162119D01*
X163638933Y-104105707D01*
X163638935Y-104105706D01*
X163644243Y-104104284D01*
X163649225Y-104101961D01*
X163846762Y-104009849D01*
X163846767Y-104009846D01*
X163851749Y-104007523D01*
X164021860Y-103888410D01*
X164034789Y-103879357D01*
X164034792Y-103879355D01*
X164039300Y-103876198D01*
X164201198Y-103714300D01*
X164204361Y-103709784D01*
X164273775Y-103610649D01*
X164332523Y-103526749D01*
X164334846Y-103521767D01*
X164334849Y-103521762D01*
X164426961Y-103324225D01*
X164426961Y-103324224D01*
X164429284Y-103319243D01*
X164466384Y-103180787D01*
X164487119Y-103103402D01*
X164487119Y-103103400D01*
X164488543Y-103098087D01*
X164508498Y-102870000D01*
X164488543Y-102641913D01*
X164475201Y-102592121D01*
X164430707Y-102426067D01*
X164430706Y-102426065D01*
X164429284Y-102420757D01*
X164399788Y-102357502D01*
X164334849Y-102218238D01*
X164334846Y-102218233D01*
X164332523Y-102213251D01*
X164201198Y-102025700D01*
X164039300Y-101863802D01*
X164034792Y-101860645D01*
X164034789Y-101860643D01*
X163884229Y-101755220D01*
X163851749Y-101732477D01*
X163846767Y-101730154D01*
X163846762Y-101730151D01*
X163649225Y-101638039D01*
X163649224Y-101638039D01*
X163644243Y-101635716D01*
X163638935Y-101634294D01*
X163638933Y-101634293D01*
X163428402Y-101577881D01*
X163428400Y-101577881D01*
X163423087Y-101576457D01*
X163195000Y-101556502D01*
X162966913Y-101576457D01*
X162961600Y-101577881D01*
X162961598Y-101577881D01*
X162751067Y-101634293D01*
X162751065Y-101634294D01*
X162745757Y-101635716D01*
X162740776Y-101638039D01*
X162740775Y-101638039D01*
X162543238Y-101730151D01*
X162543233Y-101730154D01*
X162538251Y-101732477D01*
X162505771Y-101755220D01*
X162355211Y-101860643D01*
X162355208Y-101860645D01*
X162350700Y-101863802D01*
X162188802Y-102025700D01*
X162057477Y-102213251D01*
X162055154Y-102218233D01*
X162055151Y-102218238D01*
X161990212Y-102357502D01*
X161960716Y-102420757D01*
X161959294Y-102426065D01*
X161959293Y-102426067D01*
X161914799Y-102592121D01*
X161901457Y-102641913D01*
X161881502Y-102870000D01*
X160698498Y-102870000D01*
X160678543Y-102641913D01*
X160665201Y-102592121D01*
X160620707Y-102426067D01*
X160620706Y-102426065D01*
X160619284Y-102420757D01*
X160589788Y-102357502D01*
X160524849Y-102218238D01*
X160524846Y-102218233D01*
X160522523Y-102213251D01*
X160391198Y-102025700D01*
X160229300Y-101863802D01*
X160224792Y-101860645D01*
X160224789Y-101860643D01*
X160074229Y-101755220D01*
X160041749Y-101732477D01*
X160036767Y-101730154D01*
X160036762Y-101730151D01*
X159839225Y-101638039D01*
X159839224Y-101638039D01*
X159834243Y-101635716D01*
X159828935Y-101634294D01*
X159828933Y-101634293D01*
X159618402Y-101577881D01*
X159618400Y-101577881D01*
X159613087Y-101576457D01*
X159385000Y-101556502D01*
X159156913Y-101576457D01*
X159151600Y-101577881D01*
X159151598Y-101577881D01*
X158941067Y-101634293D01*
X158941065Y-101634294D01*
X158935757Y-101635716D01*
X158930776Y-101638039D01*
X158930775Y-101638039D01*
X158733238Y-101730151D01*
X158733233Y-101730154D01*
X158728251Y-101732477D01*
X158695771Y-101755220D01*
X158545211Y-101860643D01*
X158545208Y-101860645D01*
X158540700Y-101863802D01*
X158378802Y-102025700D01*
X158247477Y-102213251D01*
X158245154Y-102218233D01*
X158245151Y-102218238D01*
X158180212Y-102357502D01*
X158150716Y-102420757D01*
X158149294Y-102426065D01*
X158149293Y-102426067D01*
X158104799Y-102592121D01*
X158091457Y-102641913D01*
X158071502Y-102870000D01*
X158091457Y-103098087D01*
X158092881Y-103103400D01*
X158092881Y-103103402D01*
X158113617Y-103180787D01*
X158150716Y-103319243D01*
X158153039Y-103324224D01*
X158153039Y-103324225D01*
X158245151Y-103521762D01*
X158245154Y-103521767D01*
X158247477Y-103526749D01*
X158306225Y-103610649D01*
X158375640Y-103709784D01*
X158378802Y-103714300D01*
X158540700Y-103876198D01*
X158545208Y-103879355D01*
X158545211Y-103879357D01*
X158558140Y-103888410D01*
X158728251Y-104007523D01*
X158733233Y-104009846D01*
X158733238Y-104009849D01*
X158930775Y-104101961D01*
X158935757Y-104104284D01*
X158941065Y-104105706D01*
X158941067Y-104105707D01*
X159151598Y-104162119D01*
X159151600Y-104162119D01*
X159156913Y-104163543D01*
X159385000Y-104183498D01*
X159613087Y-104163543D01*
X159618400Y-104162119D01*
X159618402Y-104162119D01*
X159674312Y-104147138D01*
X159745289Y-104148828D01*
X159796018Y-104179750D01*
X162522595Y-106906328D01*
X162556621Y-106968640D01*
X162559500Y-106995423D01*
X162559500Y-109272007D01*
X162539498Y-109340128D01*
X162505771Y-109375220D01*
X162355211Y-109480643D01*
X162355208Y-109480645D01*
X162350700Y-109483802D01*
X162188802Y-109645700D01*
X162057477Y-109833251D01*
X162055154Y-109838233D01*
X162055151Y-109838238D01*
X161974916Y-110010305D01*
X161960716Y-110040757D01*
X161959294Y-110046065D01*
X161959293Y-110046067D01*
X161911756Y-110223478D01*
X161901457Y-110261913D01*
X161881502Y-110490000D01*
X161901457Y-110718087D01*
X161902881Y-110723400D01*
X161902881Y-110723402D01*
X161917862Y-110779312D01*
X161916172Y-110850289D01*
X161885250Y-110901018D01*
X157041880Y-115744387D01*
X156979568Y-115778413D01*
X156908753Y-115773348D01*
X156880514Y-115758505D01*
X156847677Y-115735512D01*
X156842695Y-115733189D01*
X156842690Y-115733186D01*
X156651178Y-115643883D01*
X156651177Y-115643882D01*
X156646196Y-115641560D01*
X156640888Y-115640138D01*
X156640886Y-115640137D01*
X156499878Y-115602354D01*
X156431463Y-115584022D01*
X156210000Y-115564647D01*
X155988537Y-115584022D01*
X155920122Y-115602354D01*
X155779114Y-115640137D01*
X155779112Y-115640138D01*
X155773804Y-115641560D01*
X155768823Y-115643882D01*
X155768822Y-115643883D01*
X155577311Y-115733186D01*
X155577306Y-115733189D01*
X155572324Y-115735512D01*
X155567817Y-115738668D01*
X155567815Y-115738669D01*
X155394730Y-115859864D01*
X155394727Y-115859866D01*
X155390219Y-115863023D01*
X155233023Y-116020219D01*
X155229866Y-116024727D01*
X155229864Y-116024730D01*
X155108669Y-116197815D01*
X155105512Y-116202324D01*
X155103189Y-116207306D01*
X155103186Y-116207311D01*
X155054195Y-116312373D01*
X155007277Y-116365658D01*
X154939000Y-116385119D01*
X154871040Y-116364577D01*
X154825805Y-116312373D01*
X154776814Y-116207311D01*
X154776811Y-116207306D01*
X154774488Y-116202324D01*
X154771331Y-116197815D01*
X154650136Y-116024730D01*
X154650134Y-116024727D01*
X154646977Y-116020219D01*
X154489781Y-115863023D01*
X154485273Y-115859866D01*
X154485270Y-115859864D01*
X154375778Y-115783197D01*
X154307677Y-115735512D01*
X154302695Y-115733189D01*
X154302690Y-115733186D01*
X154111178Y-115643883D01*
X154111177Y-115643882D01*
X154106196Y-115641560D01*
X154100888Y-115640138D01*
X154100886Y-115640137D01*
X153959878Y-115602354D01*
X153891463Y-115584022D01*
X153670000Y-115564647D01*
X153448537Y-115584022D01*
X153380122Y-115602354D01*
X153239114Y-115640137D01*
X153239112Y-115640138D01*
X153233804Y-115641560D01*
X153228823Y-115643882D01*
X153228822Y-115643883D01*
X153037311Y-115733186D01*
X153037306Y-115733189D01*
X153032324Y-115735512D01*
X153027817Y-115738668D01*
X153027815Y-115738669D01*
X152854730Y-115859864D01*
X152854727Y-115859866D01*
X152850219Y-115863023D01*
X152693023Y-116020219D01*
X152689866Y-116024727D01*
X152689864Y-116024730D01*
X152568669Y-116197815D01*
X152565512Y-116202324D01*
X152563189Y-116207306D01*
X152563186Y-116207311D01*
X152514195Y-116312373D01*
X152471560Y-116403804D01*
X152414022Y-116618537D01*
X152394647Y-116840000D01*
X152414022Y-117061463D01*
X152471560Y-117276196D01*
X152473882Y-117281177D01*
X152473883Y-117281178D01*
X152563186Y-117472689D01*
X152563189Y-117472694D01*
X152565512Y-117477676D01*
X152568668Y-117482183D01*
X152568669Y-117482185D01*
X152662110Y-117615632D01*
X152693023Y-117659781D01*
X152850219Y-117816977D01*
X152854727Y-117820134D01*
X152854730Y-117820136D01*
X152892136Y-117846328D01*
X153032323Y-117944488D01*
X153037305Y-117946811D01*
X153037310Y-117946814D01*
X153228822Y-118036117D01*
X153233804Y-118038440D01*
X153239112Y-118039862D01*
X153239114Y-118039863D01*
X153304949Y-118057503D01*
X153448537Y-118095978D01*
X153670000Y-118115353D01*
X153891463Y-118095978D01*
X154035051Y-118057503D01*
X154100886Y-118039863D01*
X154100888Y-118039862D01*
X154106196Y-118038440D01*
X154111178Y-118036117D01*
X154302690Y-117946814D01*
X154302695Y-117946811D01*
X154307677Y-117944488D01*
X154447864Y-117846328D01*
X154485270Y-117820136D01*
X154485273Y-117820134D01*
X154489781Y-117816977D01*
X154646977Y-117659781D01*
X154677891Y-117615632D01*
X154771331Y-117482185D01*
X154771332Y-117482183D01*
X154774488Y-117477676D01*
X154776811Y-117472694D01*
X154776814Y-117472689D01*
X154825805Y-117367627D01*
X154872723Y-117314342D01*
X154941000Y-117294881D01*
X155008960Y-117315423D01*
X155054195Y-117367627D01*
X155103186Y-117472689D01*
X155103189Y-117472694D01*
X155105512Y-117477676D01*
X155108668Y-117482183D01*
X155108669Y-117482185D01*
X155202110Y-117615632D01*
X155233023Y-117659781D01*
X155390219Y-117816977D01*
X155394727Y-117820134D01*
X155394730Y-117820136D01*
X155432136Y-117846328D01*
X155572323Y-117944488D01*
X155577305Y-117946811D01*
X155577310Y-117946814D01*
X155768822Y-118036117D01*
X155773804Y-118038440D01*
X155779112Y-118039862D01*
X155779114Y-118039863D01*
X155844949Y-118057503D01*
X155988537Y-118095978D01*
X156210000Y-118115353D01*
X156266133Y-118110442D01*
X156335737Y-118124431D01*
X156386730Y-118173831D01*
X156402920Y-118242957D01*
X156379168Y-118309862D01*
X156366209Y-118325058D01*
X155816517Y-118874750D01*
X155808191Y-118882326D01*
X155801697Y-118886447D01*
X155796274Y-118892222D01*
X155754915Y-118936265D01*
X155752160Y-118939107D01*
X155732361Y-118958906D01*
X155729937Y-118962031D01*
X155729929Y-118962040D01*
X155729863Y-118962126D01*
X155722155Y-118971151D01*
X155691783Y-119003494D01*
X155687965Y-119010438D01*
X155687964Y-119010440D01*
X155681978Y-119021329D01*
X155671127Y-119037847D01*
X155658650Y-119053933D01*
X155641024Y-119094666D01*
X155635807Y-119105314D01*
X155614431Y-119144197D01*
X155612460Y-119151872D01*
X155612458Y-119151878D01*
X155609369Y-119163911D01*
X155602966Y-119182613D01*
X155594883Y-119201292D01*
X155593644Y-119209117D01*
X155587940Y-119245127D01*
X155585535Y-119256740D01*
X155574500Y-119299718D01*
X155574500Y-119320065D01*
X155572949Y-119339776D01*
X155569765Y-119359879D01*
X155570511Y-119367771D01*
X155573941Y-119404056D01*
X155574500Y-119415914D01*
X155574500Y-123288397D01*
X155554498Y-123356518D01*
X155520770Y-123391610D01*
X155394735Y-123479860D01*
X155394729Y-123479865D01*
X155390219Y-123483023D01*
X155233023Y-123640219D01*
X155229866Y-123644727D01*
X155229864Y-123644730D01*
X155108669Y-123817815D01*
X155105512Y-123822324D01*
X155103189Y-123827306D01*
X155103186Y-123827311D01*
X155053919Y-123932965D01*
X155007001Y-123986250D01*
X154938724Y-124005711D01*
X154870764Y-123985169D01*
X154825529Y-123932965D01*
X154776377Y-123827559D01*
X154770897Y-123818068D01*
X154740206Y-123774235D01*
X154729729Y-123765860D01*
X154716282Y-123772928D01*
X154042022Y-124447188D01*
X154034408Y-124461132D01*
X154034539Y-124462965D01*
X154038790Y-124469580D01*
X154717003Y-125147793D01*
X154728777Y-125154223D01*
X154740793Y-125144926D01*
X154770897Y-125101932D01*
X154776377Y-125092441D01*
X154825529Y-124987035D01*
X154872447Y-124933750D01*
X154940724Y-124914289D01*
X155008684Y-124934831D01*
X155053919Y-124987035D01*
X155103186Y-125092689D01*
X155103189Y-125092694D01*
X155105512Y-125097676D01*
X155108668Y-125102183D01*
X155108669Y-125102185D01*
X155145107Y-125154223D01*
X155233023Y-125279781D01*
X155390219Y-125436977D01*
X155394727Y-125440134D01*
X155394730Y-125440136D01*
X155470495Y-125493187D01*
X155572323Y-125564488D01*
X155577305Y-125566811D01*
X155577310Y-125566814D01*
X155767810Y-125655645D01*
X155773804Y-125658440D01*
X155779112Y-125659862D01*
X155779114Y-125659863D01*
X155844949Y-125677503D01*
X155988537Y-125715978D01*
X156210000Y-125735353D01*
X156431463Y-125715978D01*
X156575051Y-125677503D01*
X156640886Y-125659863D01*
X156640888Y-125659862D01*
X156646196Y-125658440D01*
X156652190Y-125655645D01*
X156842690Y-125566814D01*
X156842695Y-125566811D01*
X156847677Y-125564488D01*
X156949505Y-125493187D01*
X157025270Y-125440136D01*
X157025273Y-125440134D01*
X157029781Y-125436977D01*
X157186977Y-125279781D01*
X157274894Y-125154223D01*
X157311331Y-125102185D01*
X157311332Y-125102183D01*
X157314488Y-125097676D01*
X157316811Y-125092694D01*
X157316814Y-125092689D01*
X157365805Y-124987627D01*
X157412723Y-124934342D01*
X157481000Y-124914881D01*
X157548960Y-124935423D01*
X157594195Y-124987627D01*
X157643186Y-125092689D01*
X157643189Y-125092694D01*
X157645512Y-125097676D01*
X157648668Y-125102183D01*
X157648669Y-125102185D01*
X157685107Y-125154223D01*
X157773023Y-125279781D01*
X157930219Y-125436977D01*
X157934727Y-125440134D01*
X157934730Y-125440136D01*
X158010495Y-125493187D01*
X158112323Y-125564488D01*
X158117305Y-125566811D01*
X158117310Y-125566814D01*
X158307810Y-125655645D01*
X158313804Y-125658440D01*
X158319112Y-125659862D01*
X158319114Y-125659863D01*
X158384949Y-125677503D01*
X158528537Y-125715978D01*
X158750000Y-125735353D01*
X158971463Y-125715978D01*
X159115051Y-125677503D01*
X159180886Y-125659863D01*
X159180888Y-125659862D01*
X159186196Y-125658440D01*
X159192190Y-125655645D01*
X159382690Y-125566814D01*
X159382695Y-125566811D01*
X159387677Y-125564488D01*
X159489505Y-125493187D01*
X159565270Y-125440136D01*
X159565273Y-125440134D01*
X159569781Y-125436977D01*
X159726977Y-125279781D01*
X159814894Y-125154223D01*
X159851331Y-125102185D01*
X159851332Y-125102183D01*
X159854488Y-125097676D01*
X159856811Y-125092694D01*
X159856814Y-125092689D01*
X159905805Y-124987627D01*
X159952723Y-124934342D01*
X160021000Y-124914881D01*
X160088960Y-124935423D01*
X160134195Y-124987627D01*
X160183186Y-125092689D01*
X160183189Y-125092694D01*
X160185512Y-125097676D01*
X160188668Y-125102183D01*
X160188669Y-125102185D01*
X160225107Y-125154223D01*
X160313023Y-125279781D01*
X160470219Y-125436977D01*
X160474727Y-125440134D01*
X160474730Y-125440136D01*
X160550495Y-125493187D01*
X160652323Y-125564488D01*
X160657305Y-125566811D01*
X160657310Y-125566814D01*
X160847810Y-125655645D01*
X160853804Y-125658440D01*
X160859112Y-125659862D01*
X160859114Y-125659863D01*
X160924949Y-125677503D01*
X161068537Y-125715978D01*
X161290000Y-125735353D01*
X161511463Y-125715978D01*
X161655051Y-125677503D01*
X161720886Y-125659863D01*
X161720888Y-125659862D01*
X161726196Y-125658440D01*
X161732190Y-125655645D01*
X161922690Y-125566814D01*
X161922695Y-125566811D01*
X161927677Y-125564488D01*
X162029505Y-125493187D01*
X162105270Y-125440136D01*
X162105273Y-125440134D01*
X162109781Y-125436977D01*
X162266977Y-125279781D01*
X162354894Y-125154223D01*
X162391331Y-125102185D01*
X162391332Y-125102183D01*
X162394488Y-125097676D01*
X162396811Y-125092694D01*
X162396814Y-125092689D01*
X162486117Y-124901178D01*
X162486118Y-124901177D01*
X162488440Y-124896196D01*
X162545978Y-124681463D01*
X162565353Y-124460000D01*
X162545978Y-124238537D01*
X162505636Y-124087978D01*
X162489863Y-124029114D01*
X162489862Y-124029112D01*
X162488440Y-124023804D01*
X162442134Y-123924500D01*
X162396814Y-123827311D01*
X162396811Y-123827306D01*
X162394488Y-123822324D01*
X162391331Y-123817815D01*
X162270136Y-123644730D01*
X162270134Y-123644727D01*
X162266977Y-123640219D01*
X162109781Y-123483023D01*
X162105273Y-123479866D01*
X162105270Y-123479864D01*
X162029505Y-123426813D01*
X161927677Y-123355512D01*
X161922695Y-123353189D01*
X161922690Y-123353186D01*
X161731178Y-123263883D01*
X161731177Y-123263882D01*
X161726196Y-123261560D01*
X161720888Y-123260138D01*
X161720886Y-123260137D01*
X161655051Y-123242497D01*
X161511463Y-123204022D01*
X161290000Y-123184647D01*
X161233866Y-123189558D01*
X161164262Y-123175569D01*
X161113269Y-123126169D01*
X161097079Y-123057043D01*
X161120832Y-122990138D01*
X161133790Y-122974942D01*
X162593144Y-121515588D01*
X166327483Y-121515588D01*
X166346472Y-121732632D01*
X166348375Y-121743425D01*
X166404764Y-121953874D01*
X166408510Y-121964166D01*
X166500586Y-122161624D01*
X166506071Y-122171124D01*
X166506701Y-122172023D01*
X166506856Y-122172483D01*
X166508818Y-122175881D01*
X166508135Y-122176275D01*
X166529388Y-122239297D01*
X166512102Y-122308157D01*
X166489066Y-122333916D01*
X166490270Y-122335120D01*
X166483919Y-122341471D01*
X166476739Y-122346852D01*
X166471358Y-122354032D01*
X166471355Y-122354035D01*
X166423708Y-122417611D01*
X166389385Y-122463408D01*
X166338255Y-122599797D01*
X166331500Y-122661979D01*
X166331500Y-124358247D01*
X166338255Y-124420429D01*
X166389385Y-124556818D01*
X166476739Y-124673374D01*
X166593295Y-124760728D01*
X166729684Y-124811858D01*
X166791866Y-124818613D01*
X168488134Y-124818613D01*
X168550316Y-124811858D01*
X168686705Y-124760728D01*
X168803261Y-124673374D01*
X168890615Y-124556818D01*
X168941745Y-124420429D01*
X168948500Y-124358247D01*
X168948500Y-122661979D01*
X168941745Y-122599797D01*
X168890615Y-122463408D01*
X168856292Y-122417611D01*
X168808645Y-122354035D01*
X168808642Y-122354032D01*
X168803261Y-122346852D01*
X168796081Y-122341471D01*
X168789730Y-122335120D01*
X168791872Y-122332978D01*
X168758436Y-122288267D01*
X168753406Y-122217449D01*
X168771523Y-122176078D01*
X168771182Y-122175881D01*
X168772952Y-122172815D01*
X168773299Y-122172023D01*
X168773929Y-122171124D01*
X168779414Y-122161624D01*
X168792699Y-122133134D01*
X173404121Y-122133134D01*
X173410876Y-122195316D01*
X173462006Y-122331705D01*
X173549360Y-122448261D01*
X173665916Y-122535615D01*
X173802305Y-122586745D01*
X173864487Y-122593500D01*
X175560755Y-122593500D01*
X175622937Y-122586745D01*
X175759326Y-122535615D01*
X175875882Y-122448261D01*
X175933740Y-122371062D01*
X176491114Y-122371062D01*
X176500410Y-122383077D01*
X176551615Y-122418931D01*
X176561110Y-122424414D01*
X176758568Y-122516490D01*
X176768860Y-122520236D01*
X176979309Y-122576625D01*
X176990102Y-122578528D01*
X177207146Y-122597517D01*
X177218096Y-122597517D01*
X177435140Y-122578528D01*
X177445933Y-122576625D01*
X177656382Y-122520236D01*
X177666674Y-122516490D01*
X177864132Y-122424414D01*
X177873627Y-122418931D01*
X177925669Y-122382491D01*
X177934045Y-122372012D01*
X177926977Y-122358566D01*
X177225433Y-121657022D01*
X177211489Y-121649408D01*
X177209656Y-121649539D01*
X177203041Y-121653790D01*
X176497544Y-122359287D01*
X176491114Y-122371062D01*
X175933740Y-122371062D01*
X175963236Y-122331705D01*
X176014366Y-122195316D01*
X176021121Y-122133134D01*
X176021121Y-122129815D01*
X176044774Y-122062890D01*
X176090777Y-122027196D01*
X176089762Y-122025266D01*
X176100621Y-122019558D01*
X176100866Y-122019368D01*
X176101024Y-122019347D01*
X176139055Y-121999356D01*
X176840599Y-121297812D01*
X176846977Y-121286132D01*
X177577029Y-121286132D01*
X177577160Y-121287965D01*
X177581411Y-121294580D01*
X178286908Y-122000077D01*
X178298683Y-122006507D01*
X178310698Y-121997211D01*
X178346552Y-121946006D01*
X178352035Y-121936511D01*
X178444111Y-121739053D01*
X178447857Y-121728761D01*
X178504246Y-121518312D01*
X178506149Y-121507519D01*
X178525138Y-121290475D01*
X178525138Y-121279525D01*
X178506149Y-121062481D01*
X178504246Y-121051688D01*
X178447857Y-120841239D01*
X178444111Y-120830947D01*
X178352035Y-120633489D01*
X178346552Y-120623994D01*
X178310112Y-120571952D01*
X178299633Y-120563576D01*
X178286187Y-120570644D01*
X177584643Y-121272188D01*
X177577029Y-121286132D01*
X176846977Y-121286132D01*
X176848213Y-121283868D01*
X176848082Y-121282035D01*
X176843831Y-121275420D01*
X176138334Y-120569923D01*
X176096592Y-120547129D01*
X176086592Y-120544953D01*
X176036394Y-120494747D01*
X176021170Y-120441186D01*
X176021121Y-120440281D01*
X176021121Y-120436866D01*
X176014366Y-120374684D01*
X175963236Y-120238295D01*
X175933028Y-120197988D01*
X176491197Y-120197988D01*
X176498265Y-120211434D01*
X177199809Y-120912978D01*
X177213753Y-120920592D01*
X177215586Y-120920461D01*
X177222201Y-120916210D01*
X177927698Y-120210713D01*
X177934128Y-120198938D01*
X177924832Y-120186923D01*
X177873627Y-120151069D01*
X177864132Y-120145586D01*
X177666674Y-120053510D01*
X177656382Y-120049764D01*
X177445933Y-119993375D01*
X177435140Y-119991472D01*
X177218096Y-119972483D01*
X177207146Y-119972483D01*
X176990102Y-119991472D01*
X176979309Y-119993375D01*
X176768860Y-120049764D01*
X176758568Y-120053510D01*
X176561110Y-120145586D01*
X176551615Y-120151069D01*
X176499573Y-120187509D01*
X176491197Y-120197988D01*
X175933028Y-120197988D01*
X175875882Y-120121739D01*
X175759326Y-120034385D01*
X175622937Y-119983255D01*
X175560755Y-119976500D01*
X173864487Y-119976500D01*
X173802305Y-119983255D01*
X173665916Y-120034385D01*
X173549360Y-120121739D01*
X173462006Y-120238295D01*
X173410876Y-120374684D01*
X173404121Y-120436866D01*
X173404121Y-122133134D01*
X168792699Y-122133134D01*
X168871490Y-121964166D01*
X168875236Y-121953874D01*
X168931625Y-121743425D01*
X168933528Y-121732632D01*
X168952517Y-121515588D01*
X168952517Y-121504638D01*
X168933528Y-121287594D01*
X168931625Y-121276801D01*
X168875236Y-121066352D01*
X168871490Y-121056060D01*
X168779414Y-120858602D01*
X168773931Y-120849107D01*
X168737491Y-120797065D01*
X168727012Y-120788689D01*
X168713566Y-120795757D01*
X167729095Y-121780228D01*
X167666783Y-121814254D01*
X167595968Y-121809189D01*
X167550905Y-121780228D01*
X166565713Y-120795036D01*
X166553938Y-120788606D01*
X166541923Y-120797902D01*
X166506069Y-120849107D01*
X166500586Y-120858602D01*
X166408510Y-121056060D01*
X166404764Y-121066352D01*
X166348375Y-121276801D01*
X166346472Y-121287594D01*
X166327483Y-121504638D01*
X166327483Y-121515588D01*
X162593144Y-121515588D01*
X163685631Y-120423101D01*
X166918576Y-120423101D01*
X166925644Y-120436547D01*
X167627188Y-121138091D01*
X167641132Y-121145705D01*
X167642965Y-121145574D01*
X167649580Y-121141323D01*
X168355077Y-120435826D01*
X168361507Y-120424051D01*
X168352211Y-120412036D01*
X168301006Y-120376182D01*
X168291511Y-120370699D01*
X168094053Y-120278623D01*
X168083761Y-120274877D01*
X167873312Y-120218488D01*
X167862519Y-120216585D01*
X167645475Y-120197596D01*
X167634525Y-120197596D01*
X167417481Y-120216585D01*
X167406688Y-120218488D01*
X167196239Y-120274877D01*
X167185947Y-120278623D01*
X166988489Y-120370699D01*
X166978994Y-120376182D01*
X166926952Y-120412622D01*
X166918576Y-120423101D01*
X163685631Y-120423101D01*
X166007966Y-118100766D01*
X166016292Y-118093189D01*
X166022792Y-118089064D01*
X166069590Y-118039229D01*
X166072344Y-118036388D01*
X166092127Y-118016605D01*
X166094618Y-118013394D01*
X166102327Y-118004367D01*
X166127278Y-117977797D01*
X166132706Y-117972017D01*
X166142511Y-117954182D01*
X166153365Y-117937658D01*
X166160980Y-117927841D01*
X166160981Y-117927840D01*
X166165838Y-117921578D01*
X166168986Y-117914304D01*
X166171614Y-117909860D01*
X166223508Y-117861408D01*
X166280067Y-117848000D01*
X166472885Y-117848000D01*
X166488124Y-117843525D01*
X166489329Y-117842135D01*
X166491000Y-117834452D01*
X166491000Y-117829884D01*
X166999000Y-117829884D01*
X167003475Y-117845123D01*
X167004865Y-117846328D01*
X167012548Y-117847999D01*
X167539669Y-117847999D01*
X167546490Y-117847629D01*
X167597352Y-117842105D01*
X167612604Y-117838479D01*
X167733054Y-117793324D01*
X167748649Y-117784786D01*
X167850724Y-117708285D01*
X167863285Y-117695724D01*
X167939786Y-117593649D01*
X167948324Y-117578054D01*
X167993478Y-117457606D01*
X167997105Y-117442351D01*
X168002631Y-117391486D01*
X168003000Y-117384672D01*
X168003000Y-117112115D01*
X167998525Y-117096876D01*
X167997135Y-117095671D01*
X167989452Y-117094000D01*
X167017115Y-117094000D01*
X167001876Y-117098475D01*
X167000671Y-117099865D01*
X166999000Y-117107548D01*
X166999000Y-117829884D01*
X166491000Y-117829884D01*
X166491000Y-116712000D01*
X166511002Y-116643879D01*
X166564658Y-116597386D01*
X166617000Y-116586000D01*
X167708293Y-116586000D01*
X167776414Y-116606002D01*
X167794545Y-116620149D01*
X167809005Y-116633728D01*
X167815949Y-116637546D01*
X167815951Y-116637547D01*
X167826840Y-116643533D01*
X167843358Y-116654384D01*
X167859444Y-116666861D01*
X167900177Y-116684487D01*
X167910825Y-116689704D01*
X167922453Y-116696096D01*
X167949708Y-116711080D01*
X167957383Y-116713051D01*
X167957389Y-116713053D01*
X167969422Y-116716142D01*
X167988124Y-116722545D01*
X168006803Y-116730628D01*
X168040329Y-116735938D01*
X168050638Y-116737571D01*
X168062251Y-116739976D01*
X168105229Y-116751011D01*
X168125576Y-116751011D01*
X168145288Y-116752562D01*
X168165390Y-116755746D01*
X168173282Y-116755000D01*
X168209567Y-116751570D01*
X168221425Y-116751011D01*
X177810469Y-116751011D01*
X177821703Y-116751541D01*
X177829208Y-116753219D01*
X177897501Y-116751073D01*
X177901458Y-116751011D01*
X177929472Y-116751011D01*
X177933397Y-116750515D01*
X177933398Y-116750515D01*
X177933493Y-116750503D01*
X177945338Y-116749570D01*
X177975159Y-116748633D01*
X177981771Y-116748425D01*
X177981772Y-116748425D01*
X177989694Y-116748176D01*
X178009238Y-116742498D01*
X178028601Y-116738488D01*
X178040929Y-116736931D01*
X178040931Y-116736931D01*
X178048788Y-116735938D01*
X178056152Y-116733022D01*
X178056157Y-116733021D01*
X178090045Y-116719604D01*
X178101274Y-116715759D01*
X178117954Y-116710913D01*
X178143882Y-116703380D01*
X178150709Y-116699342D01*
X178150712Y-116699341D01*
X178161395Y-116693023D01*
X178179153Y-116684323D01*
X178190704Y-116679750D01*
X178190710Y-116679746D01*
X178198077Y-116676830D01*
X178207466Y-116670009D01*
X178233977Y-116650747D01*
X178243899Y-116644230D01*
X178275257Y-116625685D01*
X178275261Y-116625682D01*
X178282087Y-116621645D01*
X178296471Y-116607261D01*
X178311505Y-116594420D01*
X178321562Y-116587113D01*
X178327976Y-116582453D01*
X178356267Y-116548255D01*
X178364256Y-116539476D01*
X178658982Y-116244750D01*
X178721294Y-116210724D01*
X178780688Y-116212138D01*
X178836598Y-116227119D01*
X178836600Y-116227119D01*
X178841913Y-116228543D01*
X179070000Y-116248498D01*
X179298087Y-116228543D01*
X179303400Y-116227119D01*
X179303402Y-116227119D01*
X179513933Y-116170707D01*
X179513935Y-116170706D01*
X179519243Y-116169284D01*
X179524225Y-116166961D01*
X179721762Y-116074849D01*
X179721767Y-116074846D01*
X179726749Y-116072523D01*
X179831611Y-115999098D01*
X179909789Y-115944357D01*
X179909792Y-115944355D01*
X179914300Y-115941198D01*
X180076198Y-115779300D01*
X180100645Y-115744387D01*
X180110787Y-115729902D01*
X180166244Y-115685574D01*
X180236864Y-115678265D01*
X180300224Y-115710296D01*
X180336209Y-115771497D01*
X180340000Y-115802173D01*
X180340000Y-123924500D01*
X180319998Y-123992621D01*
X180266342Y-124039114D01*
X180214000Y-124050500D01*
X176899667Y-124050500D01*
X176899667Y-126366000D01*
X176879665Y-126434121D01*
X176826009Y-126480614D01*
X176773667Y-126492000D01*
X127634000Y-126492000D01*
X127565879Y-126471998D01*
X127519386Y-126418342D01*
X127508000Y-126366000D01*
X127508000Y-125518777D01*
X152975777Y-125518777D01*
X152985074Y-125530793D01*
X153028069Y-125560898D01*
X153037555Y-125566376D01*
X153228993Y-125655645D01*
X153239285Y-125659391D01*
X153443309Y-125714059D01*
X153454104Y-125715962D01*
X153664525Y-125734372D01*
X153675475Y-125734372D01*
X153885896Y-125715962D01*
X153896691Y-125714059D01*
X154100715Y-125659391D01*
X154111007Y-125655645D01*
X154302445Y-125566376D01*
X154311931Y-125560898D01*
X154355764Y-125530207D01*
X154364139Y-125519729D01*
X154357071Y-125506281D01*
X153682812Y-124832022D01*
X153668868Y-124824408D01*
X153667035Y-124824539D01*
X153660420Y-124828790D01*
X152982207Y-125507003D01*
X152975777Y-125518777D01*
X127508000Y-125518777D01*
X127508000Y-124465475D01*
X152395628Y-124465475D01*
X152414038Y-124675896D01*
X152415941Y-124686691D01*
X152470609Y-124890715D01*
X152474355Y-124901007D01*
X152563623Y-125092441D01*
X152569103Y-125101932D01*
X152599794Y-125145765D01*
X152610271Y-125154140D01*
X152623718Y-125147072D01*
X153297978Y-124472812D01*
X153305592Y-124458868D01*
X153305461Y-124457035D01*
X153301210Y-124450420D01*
X152622997Y-123772207D01*
X152611223Y-123765777D01*
X152599207Y-123775074D01*
X152569103Y-123818068D01*
X152563623Y-123827559D01*
X152474355Y-124018993D01*
X152470609Y-124029285D01*
X152415941Y-124233309D01*
X152414038Y-124244104D01*
X152395628Y-124454525D01*
X152395628Y-124465475D01*
X127508000Y-124465475D01*
X127508000Y-123049669D01*
X138107001Y-123049669D01*
X138107371Y-123056490D01*
X138112895Y-123107352D01*
X138116521Y-123122604D01*
X138161676Y-123243054D01*
X138170214Y-123258649D01*
X138246715Y-123360724D01*
X138259276Y-123373285D01*
X138361351Y-123449786D01*
X138376946Y-123458324D01*
X138497394Y-123503478D01*
X138512649Y-123507105D01*
X138563514Y-123512631D01*
X138570328Y-123513000D01*
X139427885Y-123513000D01*
X139443124Y-123508525D01*
X139444329Y-123507135D01*
X139446000Y-123499452D01*
X139446000Y-123494884D01*
X139954000Y-123494884D01*
X139958475Y-123510123D01*
X139959865Y-123511328D01*
X139967548Y-123512999D01*
X140829669Y-123512999D01*
X140836490Y-123512629D01*
X140887352Y-123507105D01*
X140902604Y-123503479D01*
X141023054Y-123458324D01*
X141038649Y-123449786D01*
X141104717Y-123400271D01*
X152975860Y-123400271D01*
X152982928Y-123413718D01*
X153657188Y-124087978D01*
X153671132Y-124095592D01*
X153672965Y-124095461D01*
X153679580Y-124091210D01*
X154357793Y-123412997D01*
X154364223Y-123401223D01*
X154354926Y-123389207D01*
X154311931Y-123359102D01*
X154302445Y-123353624D01*
X154111007Y-123264355D01*
X154100715Y-123260609D01*
X153896691Y-123205941D01*
X153885896Y-123204038D01*
X153675475Y-123185628D01*
X153664525Y-123185628D01*
X153454104Y-123204038D01*
X153443309Y-123205941D01*
X153239285Y-123260609D01*
X153228993Y-123264355D01*
X153037559Y-123353623D01*
X153028068Y-123359103D01*
X152984235Y-123389794D01*
X152975860Y-123400271D01*
X141104717Y-123400271D01*
X141140724Y-123373285D01*
X141153285Y-123360724D01*
X141229786Y-123258649D01*
X141238324Y-123243054D01*
X141283478Y-123122606D01*
X141287105Y-123107351D01*
X141292631Y-123056486D01*
X141293000Y-123049672D01*
X141293000Y-122192115D01*
X141288525Y-122176876D01*
X141287135Y-122175671D01*
X141279452Y-122174000D01*
X139972115Y-122174000D01*
X139956876Y-122178475D01*
X139955671Y-122179865D01*
X139954000Y-122187548D01*
X139954000Y-123494884D01*
X139446000Y-123494884D01*
X139446000Y-122192115D01*
X139441525Y-122176876D01*
X139440135Y-122175671D01*
X139432452Y-122174000D01*
X138125116Y-122174000D01*
X138109877Y-122178475D01*
X138108672Y-122179865D01*
X138107001Y-122187548D01*
X138107001Y-123049669D01*
X127508000Y-123049669D01*
X127508000Y-121647885D01*
X138107000Y-121647885D01*
X138111475Y-121663124D01*
X138112865Y-121664329D01*
X138120548Y-121666000D01*
X139427885Y-121666000D01*
X139443124Y-121661525D01*
X139444329Y-121660135D01*
X139446000Y-121652452D01*
X139446000Y-121647885D01*
X139954000Y-121647885D01*
X139958475Y-121663124D01*
X139959865Y-121664329D01*
X139967548Y-121666000D01*
X141274884Y-121666000D01*
X141290123Y-121661525D01*
X141291328Y-121660135D01*
X141292999Y-121652452D01*
X141292999Y-120790331D01*
X141292629Y-120783510D01*
X141287105Y-120732648D01*
X141283479Y-120717396D01*
X141238324Y-120596946D01*
X141229786Y-120581351D01*
X141153285Y-120479276D01*
X141140724Y-120466715D01*
X141038649Y-120390214D01*
X141023054Y-120381676D01*
X140902606Y-120336522D01*
X140887351Y-120332895D01*
X140836486Y-120327369D01*
X140829672Y-120327000D01*
X139972115Y-120327000D01*
X139956876Y-120331475D01*
X139955671Y-120332865D01*
X139954000Y-120340548D01*
X139954000Y-121647885D01*
X139446000Y-121647885D01*
X139446000Y-120345116D01*
X139441525Y-120329877D01*
X139440135Y-120328672D01*
X139432452Y-120327001D01*
X138570331Y-120327001D01*
X138563510Y-120327371D01*
X138512648Y-120332895D01*
X138497396Y-120336521D01*
X138376946Y-120381676D01*
X138361351Y-120390214D01*
X138259276Y-120466715D01*
X138246715Y-120479276D01*
X138170214Y-120581351D01*
X138161676Y-120596946D01*
X138116522Y-120717394D01*
X138112895Y-120732649D01*
X138107369Y-120783514D01*
X138107000Y-120790328D01*
X138107000Y-121647885D01*
X127508000Y-121647885D01*
X127508000Y-110490000D01*
X158071502Y-110490000D01*
X158091457Y-110718087D01*
X158092881Y-110723400D01*
X158092881Y-110723402D01*
X158140474Y-110901018D01*
X158150716Y-110939243D01*
X158153039Y-110944224D01*
X158153039Y-110944225D01*
X158245151Y-111141762D01*
X158245154Y-111141767D01*
X158247477Y-111146749D01*
X158378802Y-111334300D01*
X158540700Y-111496198D01*
X158545208Y-111499355D01*
X158545211Y-111499357D01*
X158623389Y-111554098D01*
X158728251Y-111627523D01*
X158733233Y-111629846D01*
X158733238Y-111629849D01*
X158929765Y-111721490D01*
X158935757Y-111724284D01*
X158941065Y-111725706D01*
X158941067Y-111725707D01*
X159151598Y-111782119D01*
X159151600Y-111782119D01*
X159156913Y-111783543D01*
X159385000Y-111803498D01*
X159613087Y-111783543D01*
X159618400Y-111782119D01*
X159618402Y-111782119D01*
X159828933Y-111725707D01*
X159828935Y-111725706D01*
X159834243Y-111724284D01*
X159840235Y-111721490D01*
X160036762Y-111629849D01*
X160036767Y-111629846D01*
X160041749Y-111627523D01*
X160146611Y-111554098D01*
X160224789Y-111499357D01*
X160224792Y-111499355D01*
X160229300Y-111496198D01*
X160391198Y-111334300D01*
X160522523Y-111146749D01*
X160524846Y-111141767D01*
X160524849Y-111141762D01*
X160616961Y-110944225D01*
X160616961Y-110944224D01*
X160619284Y-110939243D01*
X160629527Y-110901018D01*
X160677119Y-110723402D01*
X160677119Y-110723400D01*
X160678543Y-110718087D01*
X160698498Y-110490000D01*
X160678543Y-110261913D01*
X160668244Y-110223478D01*
X160620707Y-110046067D01*
X160620706Y-110046065D01*
X160619284Y-110040757D01*
X160605084Y-110010305D01*
X160524849Y-109838238D01*
X160524846Y-109838233D01*
X160522523Y-109833251D01*
X160391198Y-109645700D01*
X160229300Y-109483802D01*
X160224792Y-109480645D01*
X160224789Y-109480643D01*
X160074229Y-109375220D01*
X160041749Y-109352477D01*
X160036767Y-109350154D01*
X160036762Y-109350151D01*
X159839225Y-109258039D01*
X159839224Y-109258039D01*
X159834243Y-109255716D01*
X159828935Y-109254294D01*
X159828933Y-109254293D01*
X159618402Y-109197881D01*
X159618400Y-109197881D01*
X159613087Y-109196457D01*
X159385000Y-109176502D01*
X159156913Y-109196457D01*
X159151600Y-109197881D01*
X159151598Y-109197881D01*
X158941067Y-109254293D01*
X158941065Y-109254294D01*
X158935757Y-109255716D01*
X158930776Y-109258039D01*
X158930775Y-109258039D01*
X158733238Y-109350151D01*
X158733233Y-109350154D01*
X158728251Y-109352477D01*
X158695771Y-109375220D01*
X158545211Y-109480643D01*
X158545208Y-109480645D01*
X158540700Y-109483802D01*
X158378802Y-109645700D01*
X158247477Y-109833251D01*
X158245154Y-109838233D01*
X158245151Y-109838238D01*
X158164916Y-110010305D01*
X158150716Y-110040757D01*
X158149294Y-110046065D01*
X158149293Y-110046067D01*
X158101756Y-110223478D01*
X158091457Y-110261913D01*
X158071502Y-110490000D01*
X127508000Y-110490000D01*
X127508000Y-106277844D01*
X153476938Y-106277844D01*
X153490744Y-106517280D01*
X153491879Y-106522317D01*
X153491880Y-106522323D01*
X153539213Y-106732355D01*
X153543470Y-106751246D01*
X153570471Y-106817740D01*
X153622325Y-106945440D01*
X153633702Y-106973459D01*
X153759014Y-107177951D01*
X153790671Y-107214496D01*
X153820152Y-107279081D01*
X153810037Y-107349353D01*
X153763535Y-107403001D01*
X153755942Y-107407511D01*
X153751697Y-107409835D01*
X153743295Y-107412985D01*
X153626739Y-107500339D01*
X153539385Y-107616895D01*
X153488255Y-107753284D01*
X153481500Y-107815466D01*
X153481500Y-109811734D01*
X153488255Y-109873916D01*
X153539385Y-110010305D01*
X153626739Y-110126861D01*
X153743295Y-110214215D01*
X153879684Y-110265345D01*
X153941866Y-110272100D01*
X155938134Y-110272100D01*
X156000316Y-110265345D01*
X156136705Y-110214215D01*
X156253261Y-110126861D01*
X156340615Y-110010305D01*
X156391745Y-109873916D01*
X156398500Y-109811734D01*
X156398500Y-107815466D01*
X156391745Y-107753284D01*
X156340615Y-107616895D01*
X156253261Y-107500339D01*
X156136705Y-107412985D01*
X156128303Y-107409835D01*
X156124089Y-107407528D01*
X156073943Y-107357270D01*
X156058930Y-107287879D01*
X156082276Y-107223483D01*
X156105080Y-107191749D01*
X156194463Y-107067358D01*
X156241170Y-106972855D01*
X156298433Y-106856992D01*
X156298434Y-106856990D01*
X156300727Y-106852350D01*
X156370447Y-106622874D01*
X156401752Y-106385092D01*
X156403499Y-106313600D01*
X156394590Y-106205238D01*
X156384271Y-106079724D01*
X156384270Y-106079718D01*
X156383847Y-106074573D01*
X156325420Y-105841964D01*
X156323364Y-105837234D01*
X156323361Y-105837227D01*
X156231847Y-105626759D01*
X156231845Y-105626756D01*
X156229787Y-105622022D01*
X156212574Y-105595414D01*
X156102325Y-105424996D01*
X156102323Y-105424993D01*
X156099515Y-105420653D01*
X156070580Y-105388853D01*
X155941582Y-105247087D01*
X155941580Y-105247086D01*
X155938104Y-105243265D01*
X155934053Y-105240066D01*
X155934049Y-105240062D01*
X155836946Y-105163375D01*
X155795883Y-105105458D01*
X155792651Y-105034535D01*
X155828276Y-104973123D01*
X155841869Y-104961914D01*
X155880424Y-104934413D01*
X155884627Y-104931415D01*
X156054511Y-104762123D01*
X156194463Y-104567358D01*
X156243240Y-104468667D01*
X156298433Y-104356992D01*
X156298434Y-104356990D01*
X156300727Y-104352350D01*
X156370447Y-104122874D01*
X156401752Y-103885092D01*
X156401969Y-103876198D01*
X156403417Y-103816965D01*
X156403417Y-103816961D01*
X156403499Y-103813600D01*
X156391865Y-103672095D01*
X156384271Y-103579724D01*
X156384270Y-103579718D01*
X156383847Y-103574573D01*
X156343189Y-103412707D01*
X156326679Y-103346975D01*
X156326678Y-103346971D01*
X156325420Y-103341964D01*
X156323364Y-103337234D01*
X156323361Y-103337227D01*
X156231847Y-103126759D01*
X156231845Y-103126756D01*
X156229787Y-103122022D01*
X156217742Y-103103402D01*
X156102325Y-102924996D01*
X156102323Y-102924993D01*
X156099515Y-102920653D01*
X156070580Y-102888853D01*
X155941582Y-102747087D01*
X155941580Y-102747086D01*
X155938104Y-102743265D01*
X155934053Y-102740066D01*
X155934049Y-102740062D01*
X155753946Y-102597826D01*
X155749888Y-102594621D01*
X155539922Y-102478713D01*
X155391254Y-102426067D01*
X155318720Y-102400381D01*
X155318716Y-102400380D01*
X155313845Y-102398655D01*
X155308752Y-102397748D01*
X155308749Y-102397747D01*
X155082816Y-102357502D01*
X155082810Y-102357501D01*
X155077727Y-102356596D01*
X154990460Y-102355530D01*
X154843081Y-102353729D01*
X154843079Y-102353729D01*
X154837911Y-102353666D01*
X154600837Y-102389943D01*
X154372871Y-102464454D01*
X154368279Y-102466844D01*
X154368280Y-102466844D01*
X154260158Y-102523129D01*
X154160136Y-102575197D01*
X154156003Y-102578300D01*
X154156000Y-102578302D01*
X154063980Y-102647393D01*
X153968345Y-102719198D01*
X153802648Y-102892590D01*
X153667495Y-103090717D01*
X153566516Y-103308256D01*
X153520266Y-103475031D01*
X153505924Y-103526749D01*
X153502424Y-103539368D01*
X153476938Y-103777844D01*
X153490744Y-104017280D01*
X153491879Y-104022317D01*
X153491880Y-104022323D01*
X153528202Y-104183498D01*
X153543470Y-104251246D01*
X153633702Y-104473459D01*
X153759014Y-104677951D01*
X153916043Y-104859230D01*
X154039727Y-104961914D01*
X154045807Y-104966962D01*
X154085442Y-105025864D01*
X154086940Y-105096845D01*
X154049825Y-105157368D01*
X154040978Y-105164663D01*
X153968345Y-105219198D01*
X153802648Y-105392590D01*
X153667495Y-105590717D01*
X153566516Y-105808256D01*
X153502424Y-106039368D01*
X153476938Y-106277844D01*
X127508000Y-106277844D01*
X127508000Y-101873839D01*
X137937173Y-101873839D01*
X137949713Y-102134908D01*
X138000704Y-102391256D01*
X138089026Y-102637252D01*
X138094475Y-102647393D01*
X138155753Y-102761437D01*
X138212737Y-102867491D01*
X138215532Y-102871234D01*
X138215534Y-102871237D01*
X138366330Y-103073177D01*
X138366335Y-103073183D01*
X138369122Y-103076915D01*
X138372431Y-103080195D01*
X138372436Y-103080201D01*
X138480995Y-103187816D01*
X138554743Y-103260923D01*
X138558505Y-103263681D01*
X138558508Y-103263684D01*
X138761750Y-103412707D01*
X138765524Y-103415474D01*
X138769667Y-103417654D01*
X138769669Y-103417655D01*
X138992684Y-103534989D01*
X138992689Y-103534991D01*
X138996834Y-103537172D01*
X139089584Y-103569562D01*
X139207238Y-103610649D01*
X139243590Y-103623344D01*
X139248183Y-103624216D01*
X139495785Y-103671224D01*
X139495788Y-103671224D01*
X139500374Y-103672095D01*
X139630958Y-103677226D01*
X139756875Y-103682174D01*
X139756881Y-103682174D01*
X139761543Y-103682357D01*
X139840977Y-103673657D01*
X140016707Y-103654412D01*
X140016712Y-103654411D01*
X140021360Y-103653902D01*
X140025884Y-103652711D01*
X140269594Y-103588548D01*
X140269596Y-103588547D01*
X140274117Y-103587357D01*
X140303873Y-103574573D01*
X140509972Y-103486025D01*
X140514262Y-103484182D01*
X140736519Y-103346646D01*
X140740082Y-103343629D01*
X140740087Y-103343626D01*
X140932439Y-103180787D01*
X140932440Y-103180786D01*
X140936005Y-103177768D01*
X141001222Y-103103402D01*
X141105257Y-102984774D01*
X141105261Y-102984769D01*
X141108339Y-102981259D01*
X141249733Y-102761437D01*
X141357083Y-102523129D01*
X141393036Y-102395651D01*
X141426760Y-102276076D01*
X141426761Y-102276073D01*
X141428030Y-102271572D01*
X141444832Y-102139496D01*
X141460616Y-102015421D01*
X141460616Y-102015417D01*
X141461014Y-102012291D01*
X141463431Y-101920000D01*
X141449730Y-101735634D01*
X141444407Y-101664000D01*
X141444406Y-101663996D01*
X141444061Y-101659348D01*
X141439240Y-101638039D01*
X141387408Y-101408980D01*
X141386377Y-101404423D01*
X141291647Y-101160823D01*
X141161951Y-100933902D01*
X141000138Y-100728643D01*
X140809763Y-100549557D01*
X140595009Y-100400576D01*
X140590816Y-100398508D01*
X140364781Y-100287040D01*
X140364778Y-100287039D01*
X140360593Y-100284975D01*
X140314449Y-100270204D01*
X140116123Y-100206720D01*
X140111665Y-100205293D01*
X139853693Y-100163279D01*
X139739942Y-100161790D01*
X139597022Y-100159919D01*
X139597019Y-100159919D01*
X139592345Y-100159858D01*
X139333362Y-100195104D01*
X139082433Y-100268243D01*
X139078180Y-100270203D01*
X139078179Y-100270204D01*
X139041659Y-100287040D01*
X138845072Y-100377668D01*
X138806067Y-100403241D01*
X138630404Y-100518410D01*
X138630399Y-100518414D01*
X138626491Y-100520976D01*
X138431494Y-100695018D01*
X138264363Y-100895970D01*
X138128771Y-101119419D01*
X138027697Y-101360455D01*
X137963359Y-101613783D01*
X137962891Y-101618434D01*
X137962890Y-101618438D01*
X137959510Y-101652007D01*
X137937173Y-101873839D01*
X127508000Y-101873839D01*
X127508000Y-47821652D01*
X148335524Y-47821652D01*
X148337990Y-47830281D01*
X148337991Y-47830286D01*
X148343639Y-47850048D01*
X148347217Y-47866809D01*
X148350130Y-47887152D01*
X148350133Y-47887162D01*
X148351405Y-47896045D01*
X148362021Y-47919395D01*
X148368464Y-47936907D01*
X148375512Y-47961565D01*
X148391274Y-47986548D01*
X148399404Y-48001614D01*
X148411633Y-48028510D01*
X148428374Y-48047939D01*
X148439479Y-48062947D01*
X148453160Y-48084631D01*
X148459888Y-48090573D01*
X148475296Y-48104181D01*
X148487340Y-48116373D01*
X148506619Y-48138747D01*
X148514147Y-48143626D01*
X148514150Y-48143629D01*
X148528139Y-48152696D01*
X148543013Y-48163986D01*
X148562228Y-48180956D01*
X148570354Y-48184771D01*
X148570355Y-48184772D01*
X148576021Y-48187432D01*
X148588966Y-48193510D01*
X148603935Y-48201824D01*
X148628727Y-48217893D01*
X148645650Y-48222954D01*
X148653290Y-48225239D01*
X148670736Y-48231901D01*
X148693948Y-48242799D01*
X148723130Y-48247343D01*
X148739849Y-48251126D01*
X148759536Y-48257014D01*
X148759539Y-48257015D01*
X148768141Y-48259587D01*
X148777116Y-48259642D01*
X148777117Y-48259642D01*
X148783810Y-48259683D01*
X148802556Y-48259797D01*
X148803328Y-48259830D01*
X148804423Y-48260000D01*
X148835298Y-48260000D01*
X148836068Y-48260002D01*
X148909716Y-48260452D01*
X148909717Y-48260452D01*
X148913652Y-48260476D01*
X148914996Y-48260092D01*
X148916341Y-48260000D01*
X158995298Y-48260000D01*
X158996069Y-48260002D01*
X159073652Y-48260476D01*
X159082281Y-48258010D01*
X159082286Y-48258009D01*
X159102048Y-48252361D01*
X159118809Y-48248783D01*
X159139152Y-48245870D01*
X159139162Y-48245867D01*
X159148045Y-48244595D01*
X159171395Y-48233979D01*
X159188907Y-48227536D01*
X159204937Y-48222954D01*
X159213565Y-48220488D01*
X159238548Y-48204726D01*
X159253614Y-48196596D01*
X159280510Y-48184367D01*
X159299939Y-48167626D01*
X159314947Y-48156521D01*
X159329039Y-48147630D01*
X159336631Y-48142840D01*
X159356182Y-48120703D01*
X159368374Y-48108659D01*
X159383949Y-48095239D01*
X159383950Y-48095237D01*
X159390747Y-48089381D01*
X159395626Y-48081853D01*
X159395629Y-48081850D01*
X159404696Y-48067861D01*
X159415986Y-48052987D01*
X159427012Y-48040502D01*
X159432956Y-48033772D01*
X159445510Y-48007034D01*
X159453824Y-47992065D01*
X159469893Y-47967273D01*
X159477239Y-47942709D01*
X159483901Y-47925264D01*
X159490983Y-47910179D01*
X159494799Y-47902052D01*
X159499343Y-47872870D01*
X159503126Y-47856151D01*
X159509014Y-47836464D01*
X159509015Y-47836461D01*
X159511587Y-47827859D01*
X159511797Y-47793444D01*
X159511830Y-47792672D01*
X159512000Y-47791577D01*
X159512000Y-47760702D01*
X159512002Y-47759932D01*
X159512452Y-47686284D01*
X159512452Y-47686283D01*
X159512476Y-47682348D01*
X159512092Y-47681004D01*
X159512000Y-47679659D01*
X159512000Y-43950702D01*
X159512002Y-43949932D01*
X159512421Y-43881322D01*
X159512476Y-43872348D01*
X159510010Y-43863719D01*
X159510009Y-43863714D01*
X159504361Y-43843952D01*
X159500783Y-43827191D01*
X159497870Y-43806848D01*
X159497867Y-43806838D01*
X159496595Y-43797955D01*
X159485979Y-43774605D01*
X159479536Y-43757093D01*
X159474954Y-43741063D01*
X159472488Y-43732435D01*
X159456726Y-43707452D01*
X159448596Y-43692386D01*
X159436367Y-43665490D01*
X159419626Y-43646061D01*
X159408521Y-43631053D01*
X159399630Y-43616961D01*
X159394840Y-43609369D01*
X159372703Y-43589818D01*
X159360659Y-43577626D01*
X159347239Y-43562051D01*
X159347237Y-43562050D01*
X159341381Y-43555253D01*
X159333853Y-43550374D01*
X159333850Y-43550371D01*
X159319861Y-43541304D01*
X159304987Y-43530014D01*
X159292502Y-43518988D01*
X159285772Y-43513044D01*
X159277646Y-43509229D01*
X159277645Y-43509228D01*
X159271979Y-43506568D01*
X159259034Y-43500490D01*
X159244065Y-43492176D01*
X159219273Y-43476107D01*
X159194709Y-43468761D01*
X159177264Y-43462099D01*
X159172827Y-43460016D01*
X159154052Y-43451201D01*
X159124870Y-43446657D01*
X159108151Y-43442874D01*
X159088464Y-43436986D01*
X159088461Y-43436985D01*
X159079859Y-43434413D01*
X159070884Y-43434358D01*
X159070883Y-43434358D01*
X159064190Y-43434317D01*
X159045444Y-43434203D01*
X159044672Y-43434170D01*
X159043577Y-43434000D01*
X159012702Y-43434000D01*
X159011932Y-43433998D01*
X158938284Y-43433548D01*
X158938283Y-43433548D01*
X158934348Y-43433524D01*
X158933004Y-43433908D01*
X158931659Y-43434000D01*
X148852702Y-43434000D01*
X148851932Y-43433998D01*
X148851078Y-43433993D01*
X148774348Y-43433524D01*
X148765719Y-43435990D01*
X148765714Y-43435991D01*
X148745952Y-43441639D01*
X148729191Y-43445217D01*
X148708848Y-43448130D01*
X148708838Y-43448133D01*
X148699955Y-43449405D01*
X148676605Y-43460021D01*
X148659093Y-43466464D01*
X148651057Y-43468761D01*
X148634435Y-43473512D01*
X148609452Y-43489274D01*
X148594386Y-43497404D01*
X148567490Y-43509633D01*
X148548061Y-43526374D01*
X148533053Y-43537479D01*
X148511369Y-43551160D01*
X148505427Y-43557888D01*
X148491819Y-43573296D01*
X148479627Y-43585340D01*
X148457253Y-43604619D01*
X148452374Y-43612147D01*
X148452371Y-43612150D01*
X148443304Y-43626139D01*
X148432014Y-43641013D01*
X148415044Y-43660228D01*
X148402490Y-43686966D01*
X148394176Y-43701935D01*
X148378107Y-43726727D01*
X148375535Y-43735327D01*
X148370761Y-43751290D01*
X148364099Y-43768736D01*
X148353201Y-43791948D01*
X148348658Y-43821128D01*
X148344874Y-43837849D01*
X148338986Y-43857536D01*
X148338985Y-43857539D01*
X148336413Y-43866141D01*
X148336358Y-43875116D01*
X148336358Y-43875117D01*
X148336203Y-43900546D01*
X148336170Y-43901328D01*
X148336000Y-43902423D01*
X148336000Y-43933298D01*
X148335998Y-43934068D01*
X148335524Y-44011652D01*
X148335908Y-44012996D01*
X148336000Y-44014341D01*
X148336000Y-47743298D01*
X148335998Y-47744068D01*
X148335524Y-47821652D01*
X127508000Y-47821652D01*
X127508000Y-42036000D01*
X127528002Y-41967879D01*
X127581658Y-41921386D01*
X127634000Y-41910000D01*
X180214000Y-41910000D01*
X180282121Y-41930002D01*
G37*
%TD.AperFunction*%
%TD*%
M02*
