%TF.GenerationSoftware,KiCad,Pcbnew,(6.0.2-0)*%
%TF.CreationDate,2022-03-13T17:03:43-04:00*%
%TF.ProjectId,555_Badge,3535355f-4261-4646-9765-2e6b69636164,V01*%
%TF.SameCoordinates,Original*%
%TF.FileFunction,Soldermask,Top*%
%TF.FilePolarity,Negative*%
%FSLAX46Y46*%
G04 Gerber Fmt 4.6, Leading zero omitted, Abs format (unit mm)*
G04 Created by KiCad (PCBNEW (6.0.2-0)) date 2022-03-13 17:03:43*
%MOMM*%
%LPD*%
G01*
G04 APERTURE LIST*
G04 Aperture macros list*
%AMRoundRect*
0 Rectangle with rounded corners*
0 $1 Rounding radius*
0 $2 $3 $4 $5 $6 $7 $8 $9 X,Y pos of 4 corners*
0 Add a 4 corners polygon primitive as box body*
4,1,4,$2,$3,$4,$5,$6,$7,$8,$9,$2,$3,0*
0 Add four circle primitives for the rounded corners*
1,1,$1+$1,$2,$3*
1,1,$1+$1,$4,$5*
1,1,$1+$1,$6,$7*
1,1,$1+$1,$8,$9*
0 Add four rect primitives between the rounded corners*
20,1,$1+$1,$2,$3,$4,$5,0*
20,1,$1+$1,$4,$5,$6,$7,0*
20,1,$1+$1,$6,$7,$8,$9,0*
20,1,$1+$1,$8,$9,$2,$3,0*%
G04 Aperture macros list end*
%ADD10C,2.601600*%
%ADD11RoundRect,0.050800X1.085000X-1.085000X1.085000X1.085000X-1.085000X1.085000X-1.085000X-1.085000X0*%
%ADD12C,1.625600*%
%ADD13C,2.001600*%
%ADD14RoundRect,0.050800X0.950000X-0.950000X0.950000X0.950000X-0.950000X0.950000X-0.950000X-0.950000X0*%
%ADD15C,1.701600*%
%ADD16O,1.701600X1.701600*%
%ADD17RoundRect,0.050800X-0.750000X0.500000X-0.750000X-0.500000X0.750000X-0.500000X0.750000X0.500000X0*%
%ADD18O,1.601600X1.101600*%
%ADD19RoundRect,0.050800X-0.900000X-0.900000X0.900000X-0.900000X0.900000X0.900000X-0.900000X0.900000X0*%
%ADD20C,1.901600*%
%ADD21RoundRect,0.050800X-0.800000X-0.800000X0.800000X-0.800000X0.800000X0.800000X-0.800000X0.800000X0*%
%ADD22RoundRect,0.050800X0.800000X-0.800000X0.800000X0.800000X-0.800000X0.800000X-0.800000X-0.800000X0*%
G04 APERTURE END LIST*
D10*
%TO.C,BAT1*%
X139700000Y-101920000D03*
D11*
X139700000Y-121920000D03*
%TD*%
D12*
%TO.C,U1*%
X153670000Y-124460000D03*
X156210000Y-124460000D03*
X158750000Y-124460000D03*
X161290000Y-124460000D03*
X161290000Y-116840000D03*
X158750000Y-116840000D03*
X156210000Y-116840000D03*
X153670000Y-116840000D03*
%TD*%
D13*
%TO.C,S1*%
X154940000Y-103813600D03*
X154940000Y-106313600D03*
D14*
X154940000Y-108813600D03*
%TD*%
D15*
%TO.C,R7*%
X170815000Y-110490000D03*
D16*
X170815000Y-102870000D03*
%TD*%
D15*
%TO.C,R6*%
X167005000Y-110490000D03*
D16*
X167005000Y-102870000D03*
%TD*%
D15*
%TO.C,R5*%
X171450000Y-114935000D03*
D16*
X179070000Y-114935000D03*
%TD*%
%TO.C,R4*%
X178435000Y-110490000D03*
D15*
X178435000Y-102870000D03*
%TD*%
D16*
%TO.C,R3*%
X174625000Y-102870000D03*
D15*
X174625000Y-110490000D03*
%TD*%
D16*
%TO.C,R2*%
X159385000Y-110490000D03*
D15*
X159385000Y-102870000D03*
%TD*%
%TO.C,R1*%
X163195000Y-102870000D03*
D16*
X163195000Y-110490000D03*
%TD*%
D17*
%TO.C,Q1*%
X166745000Y-116840000D03*
D18*
X166745000Y-114300000D03*
X166745000Y-115570000D03*
%TD*%
D19*
%TO.C,D2*%
X160650000Y-62865000D03*
D20*
X163190000Y-62865000D03*
%TD*%
D19*
%TO.C,D1*%
X144780000Y-62865000D03*
D20*
X147320000Y-62865000D03*
%TD*%
D15*
%TO.C,C2*%
X177212621Y-121285000D03*
D21*
X174712621Y-121285000D03*
%TD*%
D22*
%TO.C,C1*%
X167640000Y-123510113D03*
D15*
X167640000Y-121510113D03*
%TD*%
M02*
